<?xml version="1.0" encoding="UTF-8"?>
<svg xmlns="http://www.w3.org/2000/svg" xmlns:xlink="http://www.w3.org/1999/xlink" version="1.2" >
<font id="FOR smart Picto">
<font-face  font-family="FOR smart" units-per-em="2048" ascent="1536" descent="-512" font-style="normal" font-weight="800" font-stretch="normal" cap-height="0" x-height="0" underline-position="-205" underline-thickness="102" />
<missing-glyph  horiz-adv-x="1024" d="M102 0 L102 1434 L922 1434 L922 0 L102 0 Z M820 102 L820 1332 L204 1332 L204 102 L820 102 Z " />
<glyph glyph-name="space" unicode="&#x20;" horiz-adv-x="1024" d="" />
<glyph glyph-name="exclam" unicode="&#x21;" horiz-adv-x="772" d="M387 362 Q467 362 521 302 Q567 250 567 180 Q567 101 508 47 Q457 0 387 0 Q307 0 252 60 Q205 111 205 180 Q205 261 265 315 Q317 362 387 362 Z M506 500 L271 500 L217 1434 L557 1434 L506 500 Z " />
<glyph glyph-name="quotedbl" unicode="&#x22;" horiz-adv-x="2216" d="M1610 414 L2011 414 L2011 406 L1610 25 L1610 414 Z M205 1170 Q205 1292 273 1366 Q335 1434 436 1434 L1032 1434 L1032 0 L436 0 Q321 0 257 87 Q205 159 205 264 L205 1170 Z M2011 1170 L2011 563 L1462 563 L1462 0 L1183 0 L1183 1434 L1780 1434 Q1895 1434 1959 1347 Q2011 1275 2011 1170 Z " />
<glyph glyph-name="numbersign" unicode="&#x23;" horiz-adv-x="1638" d="M1332 1434 Q1373 1434 1403.5 1405 Q1434 1376 1434 1336 L1434 1030 L205 1030 L205 1336 Q205 1376 235.5 1405 Q266 1434 307 1434 L1332 1434 Z M1342 1124 L1342 1295 Q1342 1316 1322 1332 Q1302 1348 1274 1348 L371 1348 Q343 1348 323 1332 Q303 1316 303 1295 L303 1124 L1342 1124 Z M205 98 L205 950 L1434 950 L1434 98 Q1434 58 1403.5 29 Q1373 0 1332 0 L307 0 Q266 0 235.5 29 Q205 58 205 98 Z M780 141 L780 246 L602 246 L602 141 L780 141 Z M780 522 L780 627 L602 627 L602 522 L780 522 Z M1114 823 L1114 719 L1293 719 L1293 823 L1114 823 Z M1114 627 L1114 522 L1293 522 L1293 627 L1114 627 Z M1114 442 L1114 141 L1293 141 L1293 442 L1114 442 Z M858 823 L858 719 L1036 719 L1036 823 L858 823 Z M858 627 L858 522 L1036 522 L1036 627 L858 627 Z M858 442 L858 338 L1036 338 L1036 442 L858 442 Z M858 246 L858 141 L1036 141 L1036 246 L858 246 Z M602 823 L602 719 L780 719 L780 823 L602 823 Z M602 442 L602 338 L780 338 L780 442 L602 442 Z M346 823 L346 719 L524 719 L524 823 L346 823 Z M346 627 L346 522 L524 522 L524 627 L346 627 Z M346 442 L346 338 L524 338 L524 442 L346 442 Z M346 246 L346 141 L524 141 L524 246 L346 246 Z " />
<glyph glyph-name="dollar" unicode="&#x24;" horiz-adv-x="1831" d="M453 0 L453 745 L586 745 L586 0 L453 0 Z M731 0 L731 526 L866 526 L866 0 L731 0 Z M1010 0 L1010 668 L1145 668 L1145 0 L1010 0 Z M1289 0 L1289 879 L1424 879 L1424 0 L1289 0 Z M1327 1434 L1626 1414 L1563 1119 L1489 1217 L789 727 L512 1029 L293 852 L205 963 L527 1223 L809 914 L1405 1330 L1327 1434 Z " />
<glyph glyph-name="percent" unicode="&#x25;" horiz-adv-x="1503" d="M989 1434 L1278 1128 L983 1128 L983 1436 L989 1434 Z M869 1016 L1299 1016 L1299 176 Q1299 88 1232 39 Q1177 0 1096 0 L408 0 Q313 0 257 51 Q205 99 205 176 L205 1258 Q205 1347 272 1395 Q326 1434 408 1434 L869 1434 L869 1016 Z M558 219 L787 449 L726 510 L558 342 L461 436 L400 377 L558 219 Z M558 506 L787 735 L726 797 L558 629 L461 723 L400 664 L558 506 Z " />
<glyph glyph-name="ampersand" unicode="&#x26;" horiz-adv-x="1843" d="M1639 864 L1639 569 L1069 569 L1069 0 L774 0 L774 569 L205 569 L205 864 L774 864 L774 1434 L1069 1434 L1069 864 L1639 864 Z " />
<glyph glyph-name="quotesingle" unicode="&#x27;" horiz-adv-x="1843" d="M922 1434 Q1116 1434 1284 1336 Q1446 1241 1541 1079 Q1639 911 1639 717 Q1639 523 1541 355 Q1446 193 1284 98 Q1116 0 922 0 Q728 0 560 98 Q398 193 303 355 Q205 523 205 717 Q205 911 303 1079 Q398 1241 560 1336 Q728 1434 922 1434 Z M805 322 L1409 930 L1272 1067 L805 596 L572 799 L434 660 L805 322 Z " />
<glyph glyph-name="parenleft" unicode="&#x28;" horiz-adv-x="1843" d="M922 1434 Q1116 1434 1284 1336 Q1446 1241 1541 1079 Q1639 911 1639 717 Q1639 523 1541 355 Q1446 193 1284 98 Q1116 0 922 0 Q728 0 560 98 Q398 193 303 355 Q205 523 205 717 Q205 911 303 1079 Q398 1241 560 1336 Q728 1434 922 1434 Z M1135 416 L840 709 L1151 1016 L1020 1147 L578 709 L1004 287 L1135 416 Z " />
<glyph glyph-name="parenright" unicode="&#x29;" horiz-adv-x="1843" d="M922 1434 Q1116 1434 1284 1336 Q1446 1241 1541 1079 Q1639 911 1639 717 Q1639 523 1541 355 Q1446 193 1284 98 Q1116 0 922 0 Q728 0 560 98 Q398 193 303 355 Q205 523 205 717 Q205 911 303 1079 Q398 1241 560 1336 Q728 1434 922 1434 Z M840 287 L1266 709 L823 1147 L692 1016 L1004 709 L709 416 L840 287 Z " />
<glyph glyph-name="asterisk" unicode="&#x2a;" horiz-adv-x="1843" d="M1639 717 Q1639 531 1542 364 Q1447 200 1286 103 Q1118 0 922 0 Q734 0 567 98 Q403 194 306 355 Q205 524 205 717 Q205 911 303 1079 Q398 1241 560 1336 Q728 1434 922 1434 Q1116 1434 1284 1336 Q1446 1241 1541 1079 Q1639 911 1639 717 Z M365 717 Q365 572 436 445 L783 776 L889 1272 Q653 1259 499 1079 Q365 923 365 717 Z M922 160 Q1064 160 1188 228 Q1293 285 1364 381 L922 518 L477 381 Q561 271 686 212 Q798 160 922 160 Z M1407 443 Q1479 573 1479 717 Q1479 956 1306 1120 Q1156 1262 950 1272 L1057 770 L1407 443 Z " />
<glyph glyph-name="plus" unicode="&#x2b;" horiz-adv-x="1835" d="M1608 237 Q1630 215 1630 178 Q1630 113 1573 57 Q1514 0 1450 0 Q1413 0 1391 23 L1026 393 Q1004 415 1004 458 L991 467 L965 493 Q955 502 952 511 Q836 444 698 444 Q492 444 346 589 Q205 734 205 938 Q205 1146 352 1291 Q496 1434 700 1434 Q908 1434 1053 1286 Q1194 1142 1194 938 Q1194 792 1118 673 Q1124 671 1137 663 L1167 628 L1184 630 Q1221 630 1243 608 L1608 237 Z M934 891 L934 1012 L760 1012 L760 1184 L639 1184 L639 1012 L467 1012 L467 891 L639 891 L639 716 L760 716 L760 891 L934 891 Z " />
<glyph glyph-name="comma" unicode="&#x2c;" horiz-adv-x="1843" d="M922 1434 Q1116 1434 1284 1336 Q1446 1241 1541 1079 Q1639 911 1639 717 Q1639 523 1541 355 Q1446 193 1284 98 Q1116 0 922 0 Q728 0 560 98 Q398 193 303 355 Q205 523 205 717 Q205 911 303 1079 Q398 1241 560 1336 Q728 1434 922 1434 Z M1135 547 L1223 637 L922 938 L621 637 L709 547 L922 760 L1135 547 Z " />
<glyph glyph-name="hyphen" unicode="&#x2d;" horiz-adv-x="1835" d="M1608 237 Q1630 215 1630 178 Q1630 113 1573 57 Q1514 0 1450 0 Q1413 0 1391 23 L1026 393 Q1004 415 1004 450 L1004 458 Q968 473 953 512 Q836 444 699 444 Q492 444 346 590 Q205 734 205 938 Q205 1146 352 1291 Q496 1434 701 1434 Q909 1434 1053 1286 Q1194 1142 1194 938 Q1194 792 1118 674 Q1148 664 1167 628 L1186 631 Q1221 631 1243 608 L1608 237 Z M918 895 L918 1016 L477 1016 L477 895 L918 895 Z " />
<glyph glyph-name="period" unicode="&#x2e;" horiz-adv-x="1843" d="M922 1434 Q1116 1434 1284 1336 Q1446 1241 1541 1079 Q1639 911 1639 717 Q1639 523 1541 355 Q1446 193 1284 98 Q1116 0 922 0 Q728 0 560 98 Q398 193 303 355 Q205 523 205 717 Q205 911 303 1079 Q398 1241 560 1336 Q728 1434 922 1434 Z M920 504 L1221 805 L1133 895 L920 682 L709 895 L619 805 L920 504 Z " />
<glyph glyph-name="slash" unicode="&#x2f;" horiz-adv-x="2947" d="M940 1342 Q934 1341 928 1341 Q891 1341 868 1379 Q857 1396 857 1409 Q857 1434 901 1434 Q912 1434 930 1432 L1136 1413 Q1223 1404 1235 1379 L1235 1378 Q1235 1371 1201 1371 L1171 1371 Q1161 1371 1153 1371 Q1134 1371 1114 1368 L940 1342 Z M1198 1081 Q1161 1086 1161 1092 Q1161 1099 1213 1104 Q1419 1086 1530 1086 Q1571 1086 1587 1089 Q1651 1102 1897 1243 Q1899 1240 1899 1235 Q1899 1199 1746 1112 Q1632 1047 1598 1038 Q1593 1037 1583 1037 Q1522 1037 1198 1081 Z M2267 938 Q2475 941 2616 788 Q2739 655 2740 475 Q2743 266 2590 124 Q2457 1 2277 0 Q2068 -2 1926 151 Q1803 284 1802 465 Q1800 606 1877 724 Q1942 824 2046 881 L1946 1098 Q1939 1110 1927 1110 Q1909 1110 1854 1073 L1733 990 Q1629 920 1581 865 Q1533 810 1508 731 L1455 563 Q1421 464 1391 414 L1411 406 Q1418 404 1424 404 Q1439 404 1444 412 Q1446 415 1446 420 L1444 436 Q1444 451 1446 459 Q1466 435 1466 391 Q1466 373 1463 354 Q1450 286 1387 264 Q1365 258 1342 258 Q1294 258 1257.5 282.5 Q1221 307 1209 348 L1225 334 Q1282 286 1308 286 Q1315 286 1317 291 Q1320 298 1320 312 Q1320 320 1317 350 Q1307 354 1295 356 Q1239 359 1135 373 Q1095 205 957 102 Q835 11 682 8 Q473 6 331 160 Q208 293 207 473 Q205 682 358 823 Q491 945 672 948 Q869 950 1010 809 Q1131 687 1145 518 L1151 524 Q1188 630 1188 724 Q1188 760 1180 781 Q1112 973 1044 1278 Q1039 1307 1039 1325 Q1039 1343 1045 1343 Q1068 1343 1132 1137 Q1205 902 1255 838 Q1258 835 1263 835 L1585 1012 Q1809 1127 1931 1168 Q1905 1222 1888 1289 Q1886 1299 1884 1311 Q1884 1317 1888 1323 Q1901 1330 1915 1344 Q1864 1358 1864 1384 Q1864 1391 1868 1397 Q1878 1416 1927 1416 Q1944 1416 1954 1414 L2003 1375 Q2025 1375 2051 1366 Q2077 1357 2077 1350 L2078 1319 Q2078 1301 2071 1301 Q2016 1301 1944 1287 L1948 1278 Q1976 1219 2026 1100 L2126 916 Q2197 938 2267 938 Z M678 457 Q648 464 648 479 Q648 494 686 496 Q689 495 791 492 Q791 502 789 510 Q777 554 744 581 Q711 608 670 607 Q619 606 583.5 570 Q548 534 549 483 Q550 434 586 399 Q622 364 672 364 Q749 364 780 434 Q688 455 678 457 Z M668 660 Q731 660 780 621.5 Q829 583 842 523 Q844 513 844 494 L899 494 Q1015 498 1061 502 Q1051 666 925 772 Q816 865 672 864 Q501 862 387 733 Q290 622 291 475 Q293 304 422 190 Q533 91 680 94 Q823 96 930 189 Q1022 268 1051 385 Q980 397 834 424 Q814 372 770.5 341.5 Q727 311 672 311 Q595 309 543 367 Q498 416 496 483 Q496 561 552 613 Q601 659 668 660 Z M1442 365 Q1442 373 1416 374 L1376 375 Q1364 356 1346 350 Q1346 344 1348 334 Q1348 324 1350 297 Q1351 286 1359 286 Q1362 286 1368 287 Q1405 291 1428 327 Q1444 352 1442 365 Z M1561 963 Q1577 975 1577 977 Q1565 977 1436 893 Q1430 889 1401 868 Q1330 818 1321 807 Q1284 765 1266 679 L1245 556 Q1245 555 1245 553 Q1245 545 1252 545 Q1262 545 1268 558 Q1275 572 1290 635 Q1313 734 1335 766 Q1378 828 1428 862 L1561 963 Z M2275 84 Q2446 86 2560 215 Q2657 326 2656 473 Q2654 644 2526 758 Q2416 855 2267 854 Q2211 854 2165 840 L2181 803 Q2228 701 2269 539 L2271 539 Q2300 539 2320.5 519 Q2341 499 2341 471 Q2341 442 2321 422 Q2301 402 2272 402 Q2244 400 2224 420 Q2204 440 2202 469 Q2202 502 2228 522 Q2222 533 2214 553 Q2157 691 2089 809 Q1990 755 1934 657 Q1885 567 1886 465 Q1888 294 2016 180 Q2127 83 2275 84 Z " />
<glyph glyph-name="zero" unicode="0" horiz-adv-x="3168" d="M2949 320 Q2959 279 2963 57 L2912 29 Q2896 160 2888 195 Q2852 345 2732 402 Q2652 439 2568 439 Q2485 439 2408 404 Q2296 354 2224 187 Q2197 125 2187 0 L962 4 Q958 152 915 254 Q892 310 848.5 350.5 Q805 391 715 438 Q670 463 576 463 Q503 463 463 451 Q414 436 359 389 Q304 342 274 291 Q248 245 248 174 Q248 120 260 76 Q253 74 245 74 Q234 74 225 78 Q211 85 205 106 L205 184 Q205 381 223 451 Q249 544 287 586 Q299 599 300 611 L298 633 Q298 637 298 641 Q302 678 302 791 Q302 803 296 810 Q287 819 285 823 Q284 825 284 828 Q284 839 300 857 L318 877 L346 954 L440 1044 L574 1294 Q574 1297 574 1298 L506 1358 Q505 1359 505 1360 Q505 1372 661 1393 Q976 1434 1253 1434 Q1317 1434 1380 1432 Q1497 1426 1615.5 1403 Q1734 1380 1800 1350 L1769 1338 L1720 1360 Q1688 1374 1499 1394 Q1310 1414 1233 1411 Q1156 1408 982.5 1393.5 Q809 1379 803 1374 Q795 1369 742.5 1298 Q690 1227 663 1186 Q614 1110 530 928 L529 928 Q529 926 572 914 Q607 901 668 832 L770 707 L1155 209 Q1216 158 1305 142 Q1308 141 1432 127 Q1519 118 1748 103 Q1977 88 2035 88 Q2046 88 2052 88 Q2103 94 2107 137 Q1923 158 1808 174 L1508 213 Q1326 239 1284 266 Q1237 296 1163 391 L1061 526 Q991 612 872 844 Q909 845 958 852 Q1045 865 1089 895 Q1104 905 1104 923 Q1104 933 1100 944 Q1914 866 2000 866 Q2007 866 2007 867 Q2006 870 2006 879 Q2006 910 2015 965 Q2020 993 2048 1016 L2052 1069 Q2169 979 2308 871 Q2476 842 2486 842 Q2529 842 2570 846 L2742 713 Q2652 756 2632 756 Q2628 756 2628 752 Q2628 725 2708 645 Q2753 600 2879 565 L2892 518 Q2910 504 2914 494 Q2922 483 2922 402 L2949 320 Z M450 678 Q455 684 455 690 Q455 709 428 725 Q374 757 346 758 Q338 758 331 743 Q322 724 321 723 Q314 712 314 663 Q314 648 315 641 Q317 632 332 632 Q341 632 364 637 Q381 641 410.5 655 Q440 669 450 678 Z M461 830 Q466 835 466 841 Q466 863 438 877 Q388 904 356 908 L331 873 Q322 863 322 809 Q322 798 324 793 Q326 782 343 782 Q354 782 373 787 Q428 801 461 830 Z M602 586 Q637 586 662.5 611.5 Q688 637 688 672 Q688 707 662.5 732.5 Q637 758 602 758 Q567 758 541.5 732.5 Q516 707 516 672 Q516 637 541.5 611.5 Q567 586 602 586 Z " />
<glyph glyph-name="one" unicode="1" horiz-adv-x="1843" d="M921 1434 Q1116 1434 1283 1336 Q1445 1241 1540 1079 Q1638 911 1638 717 Q1638 522 1540 355 Q1445 193 1283 98 Q1116 0 921 0 Q727 0 560 98 Q398 193 303 355 Q205 522 205 717 Q205 911 303 1079 Q398 1241 560 1336 Q727 1434 921 1434 Z M993 479 L993 973 L923 973 Q908 927 870 895 Q828 860 797 848 L797 764 Q860 785 907 836 L907 479 L993 479 Z " />
<glyph glyph-name="two" unicode="2" horiz-adv-x="2982" d="M377 1047 L563 1303 Q568 1312 568 1321 Q568 1335 559 1343 Q631 1358 711 1376 L713 1364 Q713 1361 713 1358 Q713 1344 700 1325 Q641 1239 520 1135 Q484 1103 430 1075 Q403 1061 377 1047 Z M2642 682 Q2777 599 2777 394 Q2777 320 2762 289 Q2757 276 2730 242 Q2710 130 2619 61 Q2540 0 2439 0 Q2326 0 2240 76 Q2156 82 2093 119 L2046 152 Q1363 197 1050 197 Q978 197 954 195 Q913 146 851.5 113.5 Q790 81 735 78 Q654 0 537 0 Q409 0 321 94 Q246 174 242 285 Q205 400 205 486 Q205 640 293 764 Q301 754 309 746 Q243 641 243 510 L244 481 Q289 564 366.5 610 Q444 656 537 656 Q701 656 805 529 L807 531 Q714 679 531 679 Q457 679 401 660 L299 774 Q295 867 326 959 Q344 1014 379 1028 L444 1063 Q502 1094 538 1127 Q561 1147 641 1227 Q721 1308 731 1342 Q733 1350 733 1359 Q733 1372 729 1381 Q965 1435 1266 1435 Q1371 1435 1470 1426 Q1598 1413 1676.5 1388.5 Q1755 1364 1837 1313 Q2009 1207 2230 1012 L2046 1045 Q1962 1143 1810 1250 Q1715 1318 1607 1346 Q1511 1373 1263 1373 Q1067 1373 1003 1356 Q922 1335 868 1270 Q833 1228 786 1147 Q733 1053 733 962 Q733 912 749 865 Q777 785 841 674 Q905 563 962 498 Q1017 434 1057.5 412.5 Q1098 391 1206 369 Q1554 297 2091 258 Q2111 372 2161 457 Q2202 527 2277 567.5 Q2352 608 2439 608 Q2559 608 2646 534 Q2721 469 2744 371 L2744 396 Q2744 595 2611 672 Q2608 766 2580 815 Q2553 864 2468 895 Q2329 946 2187 957 Q2194 942 2194 925 Q2194 880 2138 879 Q2095 877 1670.5 916.5 Q1246 956 1104 975 Q1047 983 1005 1004 Q1002 1005 972 1022 Q936 1040 872 1045 Q827 1049 776 1057 Q769 1057 769 1064 Q769 1071 778 1071 Q787 1072 806 1072 Q859 1072 907 1069 Q954 1066 993 1047 Q1044 1022 1072.5 1015 Q1101 1008 1179 1004 L2032 951 Q2073 952 2075 973 Q2077 998 2056 1026 Q2327 982 2472 932 Q2609 885 2625 776 L2642 682 Z M414 848 Q430 873 445 914 Q460 955 460 975 Q460 1012 426 1012 Q425 1012 421 1012 Q404 1010 382 997 Q353 981 341 946 Q322 888 323 850 Q324 817 348 815 Q356 814 375 819 Q397 825 414 848 Z M537 72 Q635 72 702 146 Q760 210 760 295 Q760 394 686 461 Q622 519 537 519 Q438 519 371 445 Q313 381 313 295 Q313 196 387 130 Q451 72 537 72 Z M2439 72 Q2538 72 2604 146 Q2662 210 2662 295 Q2662 394 2588 460 Q2524 518 2439 518 Q2340 518 2274 444 Q2216 381 2216 295 Q2216 196 2290 130 Q2353 72 2439 72 Z " />
<glyph glyph-name="three" unicode="3" horiz-adv-x="2757" d="M606 1348 Q595 1363 552 1363 L513 1362 Q483 1362 469 1368 Q616 1399 1004 1434 L1209 1434 Q1348 1423 1476 1376 Q1604 1329 1780 1225 Q1984 1105 2112 1004 Q2183 947 2202 918 Q2016 936 2013 936 Q1939 1043 1743 1163 Q1442 1352 1151 1362 Q1122 1363 1099 1363 Q900 1363 805 1311 Q761 1286 736 1217 Q711 1148 711 1052 Q711 1017 715 983 Q722 912 756 849 Q790 786 891 653 Q986 528 1009 502 Q1071 434 1126 412 Q1189 386 1303 372 L1468 354 L1631 338 Q1708 330 1819 307 Q1794 273 1733 273 L1643 279 Q1498 283 1436 289 L1217 302 Q1104 312 1051 336 Q1009 355 905 477 Q851 541 645 795 L552 912 Q504 963 455 979 L606 1348 Z M2501 563 Q2528 556 2539 517 L2552 455 L2552 358 L2519 227 Q2507 222 2488 222 Q2478 222 2466 223 Q2412 41 2235 0 L2144 0 Q2100 3 2047 37 Q1975 83 1970 86 L1880 127 L1804 180 Q1761 195 1657 190 Q1513 183 1507 183 Q1481 183 1458 185 Q1397 189 1280 189 L1151 188 L974 194 Q911 194 881 185 L754 108 Q673 25 563 0 L469 0 Q238 55 219 246 Q218 258 218 271 L220 336 Q218 366 205 387 L205 524 L238 668 L281 737 Q285 757 285 780 Q285 795 283 825 Q280 853 280 868 Q280 877 281 885 L479 1343 Q497 1325 497 1303 Q497 1279 474 1241 L440 1188 L396 1097 Q374 1049 374 1025 Q374 1021 375 1018 L404 975 Q396 980 382 980 Q361 980 357 971 Q335 923 335 843 Q335 768 352 700 L488 679 Q556 666 592 643 Q470 661 402 661 Q353 661 313 653 Q276 567 276 509 Q276 500 277 491 L352 553 Q423 595 504 595 Q642 595 742 489 Q830 396 830 274 Q830 264 830 256 Q1226 251 1856 213 Q1868 370 1947 463 Q2022 551 2144 563 Q2166 565 2184 565 Q2316 565 2396 480 Q2463 409 2476 293 Q2512 325 2512 406 Q2512 471 2491 506 L2155 639 Q2271 641 2429 586 L2419 700 L2278 833 Q2248 846 2182 850 L2089 856 Q1703 896 1501 913 Q949 958 729 997 Q784 1000 845 1000 L1520 956 Q1974 926 2108 913 Q2269 898 2296 888 Q2330 877 2400 809 Q2434 776 2452 749 Q2498 679 2501 563 Z M580 98 Q650 124 689 174 Q728 224 728 288 Q728 376 662 437 Q600 494 512 494 Q494 494 475 492 Q393 480 344 423 Q299 369 299 293 Q299 200 374 138 Q436 87 514 87 Q548 87 580 98 Z M2376 203 Q2391 242 2391 282 Q2391 371 2324 430 Q2266 481 2185 481 Q2164 481 2141 477 Q2076 466 2036 426 Q2002 392 1991.5 367 Q1981 342 1979 288 Q1975 185 2049 126 Q2107 81 2186 81 Q2253 81 2304.5 114 Q2356 147 2376 203 Z " />
<glyph glyph-name="four" unicode="4" horiz-adv-x="3320" d="M2988 678 Q3115 601 3115 403 Q3115 318 3096 281 Q3078 156 2980 78 Q2895 10 2785 10 Q2661 10 2572 92 Q2466 102 2375 170 Q1990 186 1622 197 Q1280 207 950 211 Q887 127 782 104 Q688 0 549 0 Q410 0 317 103 Q237 191 235 311 Q205 383 205 484 Q205 639 295 766 Q297 760 309 748 Q245 629 245 505 Q245 486 248 477 Q290 559 370 607.5 Q450 656 543 656 Q627 656 701 616 Q775 576 821 506 Q798 556 748.5 600.5 Q699 645 645 664 Q591 683 529 683 Q454 683 399 662 L299 774 Q306 882 323 946 Q340 1008 397 1030 Q452 1053 485 1075 L700 1289 Q737 1321 772 1332 Q842 1353 964 1371 Q842 1360 760 1338 Q713 1325 676 1293 L471 1084 Q440 1061 366 1030 L561 1276 Q565 1284 565 1294 Q565 1316 549 1338 Q716 1374 1024 1404 Q1332 1434 1531 1434 Q1642 1434 1730 1426 Q1933 1408 2076 1340 Q2267 1249 2605 1002 L2404 1035 Q2219 1205 2064 1288 Q1919 1365 1724 1387 Q1657 1394 1556 1394 Q1322 1394 1122 1368 Q1002 1352 942.5 1325 Q883 1298 842 1241 Q756 1122 735 1051 Q725 1014 725 981 Q725 945 744 895 Q764 841 841 716.5 Q918 592 967 535 Q1045 443 1119 403.5 Q1193 364 1317 346 Q1412 332 1809.5 310.5 Q2207 289 2443 285 Q2452 351 2483.5 421.5 Q2515 492 2554 535 Q2648 637 2785 637 Q2894 637 2979 570 Q3052 512 3082 424 Q3082 507 3047.5 573 Q3013 639 2953 672 Q2950 729 2939 774 Q2915 870 2806 905 Q2720 934 2523 967 Q2537 943 2537 920 Q2537 879 2482 879 L1611 959 L762 1019 Q753 1019 753 1027 Q753 1035 762 1035 Q842 1035 1182.5 1023.5 Q1523 1012 1622 1006 Q1857 994 2388 949 Q2429 949 2431 973 Q2433 998 2416 1016 Q2665 975 2793 940 Q2939 901 2969 781 L2988 678 Z M418 840 Q436 867 452.5 909.5 Q469 952 469 973 Q470 1012 434 1012 Q432 1012 428 1012 Q407 1010 385 997 Q357 982 340 942 Q319 895 319 846 Q319 843 319 840 Q322 811 350 805 Q353 804 357 804 Q367 804 377 807 Q400 813 418 840 Z M549 76 Q654 76 725 155 Q786 223 786 314 Q786 420 708 491 Q640 552 549 552 Q443 552 372 473 Q311 406 311 314 Q311 208 389 137 Q457 76 549 76 Z M2785 86 Q2891 86 2962 164 Q3023 232 3023 323 Q3023 429 2944 500 Q2876 561 2785 561 Q2679 561 2608 483 Q2547 415 2547 323 Q2547 218 2626 147 Q2694 86 2785 86 Z M1515 1376 Q1522 1372 1526 1364 Q1540 1326 1563.5 1201 Q1587 1076 1589 1026 Q1589 1020 1585 1018 L1567 1018 L1562 1024 L1560 1032 Q1535 1219 1505 1362 L1505 1370 Q1505 1375 1509 1376 L1515 1376 Z M1743 811 Q1685 811 1671 823 Q1663 830 1663 844 Q1663 851 1665 856 Q1667 871 1693 875 Q1697 875 1703 875 Q1797 875 1853 862 Q1877 857 1880 844 Q1881 837 1881 831 Q1881 826 1880 823 Q1874 812 1855 809 Q1849 808 1826 808 Q1765 808 1743 811 Z M909 848 Q852 848 838 860 Q830 867 830 881 Q830 887 832 893 Q838 909 862 912 Q866 912 873 912 Q964 912 1020 899 Q1042 894 1048 881 Q1049 877 1049 873 Q1049 864 1046 860 Q1040 848 1024 845 Q1016 844 993 844 Q932 844 909 848 Z " />
<glyph glyph-name="five" unicode="5" horiz-adv-x="2822" d="M1525 1332 Q1480 1348 1444 1360 L1441 1368 Q1450 1420 1456 1432 Q1457 1434 1461 1434 Q1470 1434 1485 1428 Q1580 1397 1624 1375.5 Q1668 1354 1835 1258 Q1983 1172 2136 1053 Q2179 1019 2259 955 Q2260 954 2260 952 Q2260 950 2253 950 Q2250 950 2246 951 L2058 967 Q2046 1006 2017 1031 Q1917 1117 1776.5 1203 Q1636 1289 1525 1332 Z M2615 447 Q2616 439 2616 430 Q2616 382 2605 336 Q2600 314 2585 273 Q2580 260 2580 253 Q2580 250 2580 248 L2580 236 Q2572 233 2560 231 Q2547 229 2541 229 L2535 229 L2527 229 Q2518 191 2494 150 Q2451 77 2390 41 Q2323 3 2252 0 Q2245 0 2242 0 Q2167 0 2093 37 Q2044 62 2021 86 Q2005 91 1996 94 Q1963 109 1935 127 Q1905 146 1849 188 Q1413 195 1362 197 Q1310 197 897 193 Q872 166 829 139 Q803 123 764 111 Q747 92 737 82 Q700 45 624 16 Q581 0 527 0 Q458 0 399 24 Q341 47 295 96.5 Q249 146 233 203 Q223 237 223 287 Q223 322 227 348 Q221 348 219 363 Q208 398 207 440 Q206 455 206 471 Q206 543 227 629 Q241 688 263 724 L282 750 Q289 754 289 766 Q282 804 282 846 Q282 927 307 1000 Q312 1014 321 1016 Q325 1022 327 1032 Q328 1038 328 1047 Q328 1076 321 1098 L280 1159 Q278 1166 278 1172 Q278 1183 287 1188 Q307 1200 353 1200 Q412 1200 481 1184 Q509 1178 516 1164 L516 1161 Q522 1176 526 1186 Q566 1279 622 1373 L635 1389 Q657 1391 821 1399 Q823 1400 824 1400 Q832 1400 832 1394 Q832 1393 832 1391 Q829 1381 805 1354 Q775 1320 762 1287 Q728 1200 728 1088 Q728 1041 733 1010 Q742 892 983 578 Q1019 531 1071.5 483 Q1124 435 1153 422 Q1167 415 1265 402 L1863 320 Q1841 291 1812 287 Q1807 286 1789 286 L1603 291 Q1539 293 1345 309 Q1120 327 1081 348 Q1031 376 954 461 L530 979 Q510 1000 485 1004 Q475 1006 463 1008 Q424 1012 377 1012 L370 1010 Q364 1006 362 1000 Q341 935 341 854 Q341 821 350 742 Q352 727 362 719 L372 719 L374 719 L399 715 Q501 700 536 690 Q596 674 606 664 Q555 675 497 680 Q464 683 418 683 L356 682 Q350 680 340 680 L338 680 Q318 678 313 666 Q277 570 277 514 Q277 503 278 496 Q317 546 350 565 Q413 602 497 608 Q506 609 518 609 Q597 609 673 569 Q735 537 778 479 Q798 452 819 396 Q840 340 846 297 Q848 280 848 270 Q848 266 848 264 Q1081 258 1142 256 L1702 231 Q1728 230 1900 219 Q1914 310 1927 350 Q1942 398 1968 443 Q1984 470 2019.5 500.5 Q2055 531 2087 545 Q2168 582 2238 582 Q2279 582 2322 570 Q2409 544 2455 492 Q2522 416 2531 332 Q2533 313 2533 303 Q2548 307 2554 313 Q2565 326 2570 363 Q2574 388 2574 409 Q2574 426 2562 494 Q2557 522 2536 541 Q2475 580 2384 610 Q2310 635 2201 660 Q2250 659 2281 655 Q2331 650 2382 637 Q2450 619 2492 604 L2480 707 Q2478 725 2470 736 Q2398 810 2367.5 835.5 Q2337 861 2316 865 Q2249 877 1908 910 Q1877 912 1845 916 L821 1012 Q815 1014 811 1014 Q807 1014 798 1016 L796 1016 Q790 1016 760 1022 Q749 1025 749 1029 L749 1030 Q757 1032 764 1032 Q770 1035 776 1035 L819 1035 Q901 1035 1001 1028 Q1095 1023 1339 1004 L2306 922 Q2312 921 2322 920 Q2334 920 2341 918 Q2351 916 2357 912 L2379 897 Q2447 849 2500 791 Q2519 770 2531 752 Q2543 733 2543 725 L2543 715 Q2545 703 2545 690 L2552 627 Q2552 621 2554 612 L2566 574 Q2574 569 2580 567 Q2595 562 2599 551 L2615 447 Z M516 90 Q610 90 672 161 Q726 221 725 303 Q724 397 655 460 Q595 514 514 514 Q420 514 357 443 Q302 382 303 301 Q304 207 374 144 Q435 90 516 90 Z M2238 78 Q2332 78 2396 149 Q2450 210 2450 291 Q2450 385 2380 448 Q2319 502 2238 502 Q2145 502 2081 431 Q2027 371 2027 289 Q2027 195 2097 132 Q2158 78 2238 78 Z " />
<glyph glyph-name="six" unicode="6" horiz-adv-x="4127" d="M1241 250 Q1269 250 1269 235 Q1269 219 1241 189 Q1123 85 877 76 Q830 76 811 62 Q714 0 599 0 Q570 0 543 4 Q396 27 301 137 Q205 250 205 395 Q205 546 299 655 Q397 766 541 788 Q570 793 600 793 Q708 793 801 737 Q919 668 969 541 Q997 471 997 396 Q997 336 979 281 L981 287 Q978 278 978 271 Q978 250 1008 250 L1241 250 Z M601 109 Q729 109 814 204 Q887 286 887 398 Q887 525 793 610 Q711 684 601 684 Q474 684 388 589 Q314 507 314 398 Q314 269 409 183 Q491 109 601 109 Z M3859 364 Q3854 349 3854 326 Q3854 295 3865 268 L3876 244 Q3876 226 3816 211 Q3708 185 3629 178 Q3607 147 3599 137 Q3504 27 3357 4 Q3327 -1 3297 -1 Q3186 -1 3093 59 L3091 59 Q3064 76 3023 76 Q2836 85 2717 188 Q2689 209 2689 221 Q2689 233 2718 233 L2892 233 Q2922 233 2922 254 Q2922 261 2919 270 Q2902 334 2902 391 Q2902 466 2931 540 Q2979 666 3099 737 Q3192 793 3299 793 Q3328 793 3357 788 Q3501 766 3599 655 Q3695 546 3695 395 Q3695 341 3678 282 L3713 284 Q3733 283 3750 301.5 Q3767 320 3775 350 L3826 561 Q3829 586 3829 591 Q3829 628 3797 662 Q3552 912 3275 912 Q3269 912 3256 912 Q3056 905 2875 836 L2824 817 Q2806 812 2795 812 Q2786 812 2786 816 Q2786 826 2835 858 Q2843 864 2853 870 Q2869 880 2869 888 Q2869 898 2843 901 L2710 922 Q2169 1012 1350 1073 L1309 1075 Q1286 1077 1284 1092 L1286 1104 Q1298 1112 1318 1112 Q1331 1112 1352 1111 Q2081 1065 2353 1036 Q2367 1034 2381 1034 Q2407 1034 2407 1045 Q2407 1055 2382 1075 Q2282 1164 2098 1248 Q1786 1389 1432 1389 Q1371 1389 1313 1385 Q1256 1381 1243 1371 Q1215 1280 1199 1213 Q1191 1180 1191 1147 Q1191 1068 1236 983 Q1346 780 1444 641 Q1550 492 1748 464 Q2171 409 2585 372 Q2692 361 2692 322 Q2692 305 2663 284 Q2629 260 2599 247 Q2576 237 2554 237 L1403 276 Q1353 277 1327 315 Q1136 594 990 879 Q941 971 941 1051 Q941 1087 950 1120 Q974 1209 1024 1336 L1022 1342 Q1010 1362 987 1362 Q967 1362 866 1348.5 Q765 1335 744 1329 L694 1320 Q597 1293 529 1151 Q772 1146 891 1141 Q909 1139 909 1129 Q909 1126 907 1122 Q905 1107 873 1106 Q838 1105 582 1090 Q588 1079 588 1071 Q588 1060 567 1045 Q548 1030 487 1010 Q463 1004 459 995 L451 954 Q438 915 418.5 893 Q399 871 360 854 Q319 833 299 805 Q280 777 276 739 Q274 729 270 723 Q257 707 233 669 Q230 665 227 665 Q221 665 221 673 Q221 734 231 780 Q243 835 277 866 L330 905 Q365 931 367 958 Q367 959 358 1032 Q358 1047 358 1060 Q358 1129 371 1147 Q408 1209 463 1254 Q465 1256 465 1260 Q465 1268 453 1272 Q444 1276 444 1280 Q444 1297 534 1319 Q728 1369 1071 1409 L1079 1411 L1147 1418 Q1179 1420 1225 1424 Q1402 1434 1489 1434 Q1693 1434 1866 1393 Q1961 1376 2129.5 1305 Q2298 1234 2464 1141 Q2612 1053 2695 1018.5 Q2778 984 2859 975 Q2976 961 3000 959 Q3017 956 3017 946 Q3017 938 3011 934 Q2997 920 2997 917 Q2997 915 3000 915 Q3003 915 3009 917 Q3064 936 3140 950 Q3229 968 3308 968 Q3421 968 3527 938 Q3537 934 3549 930 Q3556 932 3574 889 L3574 888 Q3574 885 3595 877 L3691 850 Q3711 846 3726 821 L3750 776 L3899 670 Q3921 646 3921 613 Q3921 559 3859 364 Z M3300 108 Q3426 108 3512 203 Q3586 286 3586 397 Q3586 524 3491 610 Q3409 684 3300 684 Q3172 684 3086 589 Q3013 507 3013 397 Q3013 268 3107 182 Q3188 108 3300 108 Z " />
<glyph glyph-name="seven" unicode="7" horiz-adv-x="4174" d="M232 678 Q228 673 224 673 Q219 673 219 680 Q219 743 229 789 Q242 846 274 877 L330 915 Q362 942 365 969 L361 1010 L367 1038 L365 1079 L365 1094 Q365 1105 354 1122 Q345 1135 345 1144 Q345 1161 379 1161 Q433 1163 499 1163 Q671 1163 895 1151 Q914 1151 914 1137 Q914 1135 913 1132 Q909 1119 876 1116 L584 1100 Q590 1090 590 1083 Q590 1069 570 1055 Q551 1041 488 1020 Q463 1014 459 1006 L451 965 Q429 897 361 862 Q320 843 297 813 Q278 788 275 748 L268 731 L232 678 Z M3967 592 L3910 375 Q3903 350 3903 327 L3921 246 Q3921 238 3914 232 Q3883 205 3780 192 L3662 181 Q3655 168 3631 139 Q3535 27 3388 4 Q3357 -1 3326 -1 Q3213 -1 3119 59 Q3099 74 3050 78 Q2867 84 2740 189 Q2713 213 2713 224 Q2713 236 2742 236 L2919 236 Q2948 236 2948 258 Q2948 265 2945 273 Q2928 342 2928 401 Q2928 476 2956 545 Q3008 676 3126 746 Q3219 800 3326 800 Q3358 800 3388 795 Q3538 772 3632 662 Q3728 553 3728 400 Q3728 346 3711 287 Q3763 289 3780.5 300.5 Q3798 312 3809 353 Q3829 422 3862 576 Q3865 589 3865 599 Q3865 635 3827 676 Q3603 924 3287 924 Q3141 924 2976 871 Q2845 822 2824 822 Q2816 822 2816 826 Q2816 835 2845 855 L2883 882 Q2900 894 2898 900 Q2896 908 2859 914 L2767 928 Q2069 1039 1333 1088 Q1304 1091 1304 1108 Q1304 1127 1338 1125 Q1838 1099 2388 1047 Q2400 1046 2410 1046 Q2434 1046 2434 1056 Q2434 1067 2402 1090 Q2353 1127 2012 1373 Q2004 1378 2004 1387 Q2004 1397 2011.5 1405.5 Q2019 1414 2028 1414 Q2032 1414 2036 1411 Q2335 1254 2718 1047 Q2796 1005 2912 990 Q2927 990 2959 985 Q3048 972 3048 956 Q3048 953 3045 949 Q3039 938 3029 928 Q3033 928 3048 932 Q3099 947 3148 957 Q3253 978 3346 978 Q3475 978 3590 938 L3643 885 Q3690 876 3742 852 L3807 781 Q3875 732 3930 682 Q3968 649 3968 606 Q3968 599 3967 592 Z M3328 110 Q3457 110 3543 205 Q3617 288 3617 400 Q3617 529 3522 616 Q3439 691 3328 691 Q3200 691 3114 594 Q3040 511 3040 400 Q3040 271 3135 185 Q3217 110 3328 110 Z M1252 252 Q1280 252 1280 236 Q1280 220 1252 189 Q1125 84 883 78 Q839 78 817 62 Q717 0 602 0 Q573 0 545 4 Q397 27 301 139 Q205 251 205 399 Q205 553 301 661 Q395 771 545 794 Q575 799 607 799 Q714 799 807 745 Q927 674 977 545 Q1005 476 1005 398 Q1005 337 987 283 L987 289 Q985 281 985 274 Q985 252 1014 252 L1252 252 Z M605 111 Q734 111 820 206 Q894 288 894 399 Q894 528 799 615 Q716 690 605 690 Q477 690 390 594 Q316 511 316 399 Q316 271 411 185 Q494 111 605 111 Z M2607 377 Q2715 366 2715 327 Q2715 309 2685 287 Q2657 267 2622 250 Q2600 240 2576 240 L1413 279 Q1365 280 1338 318 Q1160 567 996 887 Q947 982 947 1063 Q947 1100 957 1133 Q987 1239 1041 1371 Q1062 1423 1088 1426 Q1167 1434 1235 1434 Q1265 1434 1265 1417 Q1265 1414 1264 1409 Q1233 1328 1206 1225 Q1198 1193 1198 1160 Q1198 1081 1245 994 Q1354 791 1454 648 Q1557 500 1761 471 Q2163 416 2607 377 Z " />
<glyph glyph-name="eight" unicode="8" horiz-adv-x="3666" d="M2349 920 Q2418 912 2418 885 Q2394 886 2367 889 L2322 893 Q2197 909 1941 932 L1740 948 L1685 952 Q1577 963 1480 967 L1224 985 L972 999 Q929 1001 899 1001 L866 1004 Q862 1016 860 1024 L860 1026 L931 1022 Q956 1022 1419 1006 L1513 999 L1517 1006 Q1518 1009 1501 1075 Q1493 1103 1458 1214 L1441 1264 L1439 1266 L1445 1266 Q1455 1257 1482 1212 Q1512 1163 1552 1051 Q1566 1011 1570 997 Q1929 969 2026 959 Q2123 949 2349 920 Z M2625 957 Q2649 933 2649 904 Q2649 875 2631 838 Q2453 416 2381 324 Q2351 281 2334 256 Q2310 232 2277 230 L2267 230 L1065 250 Q1043 250 1036.5 253 Q1030 256 1026 269 L974 442 Q922 588 862 650 Q786 729 670.5 777.5 Q555 826 348 865 L342 877 Q436 1306 475 1350 Q499 1377 770 1405.5 Q1041 1434 1276 1434 Q1356 1434 1409 1430 Q1578 1416 1670 1399.5 Q1762 1383 1886 1345 Q2272 1226 2625 957 Z M2478 828 Q2479 839 2479 850 Q2479 921 2402 985 Q2283 1084 2089.5 1170.5 Q1896 1257 1671 1312 Q1530 1348 1316 1348 Q1040 1348 876 1304 Q777 1278 777 1171 Q777 1153 782 1123 L782 1121 L782 1119 L782 1117 Q792 1096 811 1043 L1089 521 Q1144 418 1243 387 Q1268 379 1335 373 Q1403 368 1773 352 Q2143 336 2207 336 Q2216 336 2224 336 Q2280 339 2293 353 Q2295 354 2345 430 Q2402 517 2478 828 Z M278 705 Q257 684 257 631 Q257 583 270 532 L225 473 L223 477 Q206 538 206 623 Q206 636 206 649 Q208 695 223 719 L241 741 Q249 754 344 827 L479 799 Q479 788 473 788 Q400 781 360.5 764 Q321 747 278 705 Z M3448 272 Q3459 261 3459 251 Q3459 229 3416 217 Q3383 208 3174 201 Q3132 105 3042 50 Q2961 0 2867 0 Q2727 0 2631 96 L2623 96 L2543 104 Q2533 106 2494.5 126.5 Q2456 147 2449 154 L2383 211 Q2382 212 2382 213 Q2382 222 2439 222 L2530 219 Q2543 219 2543 246 Q2543 263 2539 287 Q2533 315 2533 325 Q2533 470 2643 567 Q2738 651 2867 651 Q3014 651 3113 544 Q3199 451 3199 326 L3199 324 Q3237 326 3326 334 Q3334 336 3336 348 Q3382 470 3382 600 Q3382 656 3373 676 Q3359 704 3307 737 Q3277 756 2797 942 L2795 946 L3252 815 Q3382 758 3409 735 Q3443 704 3450 639 Q3453 616 3453 588 Q3453 481 3424 352 Q3419 333 3419 322 Q3419 307 3448 272 Z M2867 82 Q2976 82 3049 163 Q3113 233 3113 328 Q3113 437 3032 510 Q2962 573 2867 573 Q2758 573 2685 493 Q2621 423 2621 328 Q2621 219 2702 145 Q2773 82 2867 82 Z M2062 1296 L1972 1342 Q1972 1343 1972 1342 Q1972 1343 1973 1343 Q2189 1199 2504 1063 Q2726 967 2758 967 Q2742 967 2742 958 Q2742 965 2693 975 Q2649 1019 2471 1110 Q2293 1201 2062 1296 Z M886 332 Q886 312 898.5 280 Q911 248 919 248 L1019 244 Q997 203 968 178 Q941 155 904.5 134 Q868 113 856 113 Q821 113 786 96 Q689 6 561 6 Q417 6 321 113 Q237 206 237 332 Q237 475 344 571 Q437 655 561 655 Q706 655 803 548 Q886 456 886 332 Z M563 80 Q672 80 745 161 Q809 231 809 325 Q809 435 728 508 Q658 571 563 571 Q454 571 381 491 Q317 421 317 325 Q317 217 398 143 Q469 80 563 80 Z " />
<glyph glyph-name="nine" unicode="9" horiz-adv-x="2404" d="M700 1330 Q611 1280 565 1170 Q530 1085 530 987 Q530 922 546 869 Q586 744 775 489 Q941 265 1030 219 Q1095 186 1336 151.5 Q1577 117 1886 96 L1843 0 Q1030 34 942 55 L209 908 Q206 909 206 915 Q206 942 249 1032 Q292 1122 346 1209 Q473 1410 547 1418 Q712 1434 888 1434 L1272 1418 Q1441 1418 1872 1098 Q2053 963 2199 836 L2019 836 Q1859 976 1684 1109 Q1387 1334 1284 1340 Q1082 1354 932 1354 Q744 1354 700 1330 Z " />
<glyph glyph-name="colon" unicode="&#x3a;" horiz-adv-x="2583" d="M1847 1434 L2378 752 L1847 0 L205 0 L205 1434 L1847 1434 Z M1526 633 L1526 801 L1229 801 L1229 1098 L1061 1098 L1061 801 L764 801 L764 633 L1061 633 L1061 336 L1229 336 L1229 633 L1526 633 Z " />
<glyph glyph-name="semicolon" unicode="&#x3b;" horiz-adv-x="2583" d="M735 1434 L2378 1434 L2378 0 L735 0 L205 752 L735 1434 Z M1163 596 L1905 596 L1905 813 L1163 813 L1163 596 Z " />
<glyph glyph-name="less" unicode="&#x3c;" horiz-adv-x="1364" d="M205 717 L942 1434 L1159 1221 L641 717 L1159 213 L942 0 L205 717 Z " />
<glyph glyph-name="equal" unicode="&#x3d;" horiz-adv-x="1843" d="M1383 1296 L1639 1044 L744 137 L205 688 L475 961 L762 674 L1383 1296 Z " />
<glyph glyph-name="greater" unicode="&#x3e;" horiz-adv-x="1364" d="M1159 717 L422 0 L205 213 L723 717 L205 1221 L422 1434 L1159 717 Z " />
<glyph glyph-name="question" unicode="&#x3f;" horiz-adv-x="4092" d="M3269 1403 Q3606 1360 3787 1276 Q3864 1240 3887 1213 Q3863 1211 3762 1188 Q3488 1278 3363 1301 Q3276 1318 2968.5 1339 Q2661 1360 2499 1360 Q2331 1360 1889 1314 Q1512 1275 1489 1256 Q1453 1224 1193.5 828.5 Q934 433 895 350 Q830 213 746 0 Q430 18 383 25 Q336 29 205 29 Q283 279 361 434 Q436 588 651 938 Q596 975 580 1004 Q574 1015 574 1029 Q574 1072 615 1113 Q623 1121 635 1121 L727 1075 L733 1078 Q733 1088 699 1123 Q657 1155 639 1176 Q631 1185 631 1194 Q631 1215 711 1231 L959 1276 Q1202 1326 1809 1385 Q2276 1434 2706 1434 Q3026 1434 3269 1403 Z " />
<glyph glyph-name="at" unicode="&#x40;" horiz-adv-x="1843" d="M641 436 Q606 468 606 518 Q606 561 629 584 L1022 977 Q1047 1001 1083 1001 Q1128 1001 1167 962 Q1206 923 1206 878 Q1206 842 1182 817 L789 424 Q761 406 723 406 Q672 406 641 436 Z M1508 1287 Q1639 1155 1639 1012 Q1639 850 1481 693 Q1438 651 1387.5 614.5 Q1337 578 1309 570 Q1295 566 1278 566 Q1211 566 1096 598 L1419 922 Q1469 971 1469 1020 Q1469 1076 1383 1162 L1366 1178 Q1282 1266 1225 1266 Q1178 1266 1127 1215 L805 893 Q766 1012 766 1076 Q766 1092 768 1098 Q781 1134 828.5 1195.5 Q876 1257 926 1304 Q1071 1434 1217 1434 Q1360 1434 1491 1303 L1508 1287 Z M717 219 L1041 543 Q1073 428 1073 362 Q1073 343 1069 330 Q1059 296 1012 235 Q965 174 914 128 Q772 0 627 0 Q481 0 352 131 L336 147 Q205 279 205 422 Q205 586 366 743 Q409 786 460.5 822.5 Q512 859 541 868 Q553 872 567 872 Q631 872 746 834 L424 512 Q373 461 373 414 Q373 357 461 272 L477 256 Q562 168 619 168 Q666 168 717 219 Z " />
<glyph glyph-name="A" unicode="A" horiz-adv-x="1651" d="M1096 824 Q1286 824 1384 581 Q1446 428 1446 277 Q1446 117 1401.5 58.5 Q1357 0 1235 0 L395 0 Q295 0 255 46 Q205 104 205 256 Q205 319 228 420.5 Q251 522 282 595 Q378 824 543 824 L830 537 L1096 824 Z M815 912 Q700 912 622 998 Q555 1072 555 1172 Q555 1289 641 1367 Q715 1434 815 1434 Q932 1434 1010 1348 Q1077 1273 1077 1172 Q1077 1057 991 979 Q916 912 815 912 Z " />
<glyph glyph-name="B" unicode="B" horiz-adv-x="1753" d="M662 747 Q551 614 504 360 L346 360 Q272 360 242 396 Q205 440 205 552 Q205 599 222 675 Q239 751 262 805 Q334 976 457 976 L672 761 Q670 757 662 747 Z M661 1043 Q576 1043 517 1108 Q467 1163 467 1238 Q467 1325 532 1383 Q587 1434 661 1434 Q749 1434 807 1369 Q858 1313 858 1238 Q858 1152 793 1093 Q737 1043 661 1043 Z M1286 616 Q1428 616 1501 434 Q1548 319 1548 207 Q1548 83 1514 41.5 Q1480 0 1381 0 L780 0 Q694 0 664 30 Q621 72 621 192 Q621 240 638 315.5 Q655 391 677 445 Q748 616 873 616 L1086 401 L1286 616 Z M1078 682 Q990 682 932 747 Q881 802 881 877 Q881 964 946 1022 Q1002 1073 1078 1073 Q1163 1073 1222 1008 Q1272 952 1272 877 Q1272 791 1207 732 Q1152 682 1078 682 Z " />
<glyph glyph-name="C" unicode="C" horiz-adv-x="1948" d="M1098 848 Q960 776 884 643 Q815 523 815 383 Q815 336 826 281 L359 281 Q278 281 246 319 Q205 366 205 488 Q205 538 223 619.5 Q241 701 266 759 Q342 942 475 942 L707 713 L922 942 Q1025 942 1098 848 Z M697 1014 Q603 1014 540 1083 Q486 1143 486 1223 Q486 1317 556 1380 Q616 1434 697 1434 Q790 1434 852 1364 Q906 1304 906 1223 Q906 1131 837 1068 Q777 1014 697 1014 Z M1678 350 L1708 326 Q1743 301 1743 279 Q1743 253 1710 197 Q1673 127 1641 127 Q1628 127 1600 139 L1563 154 Q1530 126 1481 106 Q1477 78 1477 68 Q1471 25 1454 14 Q1432 0 1366 0 Q1304 0 1284.5 12.5 Q1265 25 1260 68 L1256 106 Q1203 128 1172 154 L1137 139 Q1108 127 1098 127 Q1066 127 1022 201 Q993 250 993 276 Q993 300 1028 328 L1059 350 Q1055 367 1055 399 Q1055 430 1057 444 L1028 469 Q993 493 993 518 Q993 545 1022 594 Q1066 668 1098 668 Q1108 668 1137 655 L1170 641 Q1202 671 1256 692 L1260 727 Q1265 769 1283 781 Q1304 795 1366 795 Q1432 795 1451.5 783 Q1471 771 1477 727 Q1477 717 1481 692 Q1529 673 1567 641 L1600 655 Q1629 668 1641 668 Q1673 668 1710 598 Q1743 541 1743 516 Q1743 493 1708 469 L1678 444 Q1682 430 1682 399 Q1682 384 1678 350 Z M1369 231 Q1443 231 1493 286 Q1537 334 1537 399 Q1537 474 1481 524 Q1433 568 1369 568 Q1294 568 1244 512 Q1200 464 1200 399 Q1200 324 1256 274 Q1304 231 1369 231 Z " />
<glyph glyph-name="D" unicode="D" horiz-adv-x="1841" d="M1057 889 L1057 524 L817 524 L817 293 L356 293 Q276 293 245 331 Q205 377 205 497 Q205 547 223 627.5 Q241 708 265 766 Q341 948 473 948 L700 719 L913 948 Q998 948 1057 889 Z M691 1018 Q599 1018 537 1086 Q484 1145 484 1225 Q484 1319 552 1381 Q611 1434 691 1434 Q784 1434 846 1366 Q900 1306 900 1225 Q900 1133 831 1071 Q771 1018 691 1018 Z M1364 426 L1637 426 L1637 272 L1364 272 L1364 0 L1208 0 L1208 272 L936 272 L936 426 L1208 426 L1208 698 L1364 698 L1364 426 Z " />
<glyph glyph-name="E" unicode="E" horiz-adv-x="1853" d="M1153 733 L1153 557 L707 557 L707 287 L357 287 Q278 287 245 325 Q205 371 205 492 Q205 542 223 623.5 Q241 705 265 763 Q341 946 473 946 L703 717 L918 946 Q1078 946 1153 733 Z M693 1016 Q601 1016 538 1085 Q484 1145 484 1225 Q484 1317 553 1380 Q613 1434 693 1434 Q787 1434 849 1365 Q902 1305 902 1225 Q902 1132 834 1070 Q774 1016 693 1016 Z M1649 316 L1280 0 L1280 211 L860 211 L860 422 L1280 422 L1280 633 L1649 316 Z " />
<glyph glyph-name="F" unicode="F" horiz-adv-x="2038" d="M1276 1067 L1057 1067 L1057 1208 L1276 1208 L1276 1427 L1417 1427 L1417 1208 L1637 1208 L1637 1067 L1417 1067 L1417 848 L1276 848 L1276 1067 Z M774 1044 Q848 1044 902 983 Q956 922 981 809 Q705 785 694 698 Q693 686 668 518 L328 518 Q259 518 232 554 Q205 590 205 682 Q205 722 219.5 787 Q234 852 253 898 Q314 1044 420 1044 L602 860 L774 1044 Z M594 1100 Q520 1100 471 1155 Q428 1202 428 1266 Q428 1340 483 1391 Q530 1434 594 1434 Q668 1434 719 1378 Q762 1330 762 1266 Q762 1192 706 1143 Q658 1100 594 1100 Z M1833 221 L1833 176 L1825 147 Q1817 127 1817 115 L1817 109 L1813 106 Q1800 102 1792 102 L1790 104 Q1763 21 1677 0 L1634 0 Q1614 2 1571 27 L1548 41 Q1538 45 1532 47 Q1509 58 1505 61 L1493 72 L1473 84 Q1457 88 1430 88 Q1401 88 1385 86 L1336 85 Q1322 85 1313 86 Q1286 88 1221 88 L1172 88 Q1145 88 1133 90 L1090 90 Q1065 90 1049 86 Q1038 83 1024 70 Q1001 51 989 51 Q950 12 899 0 L854 0 Q736 27 727 123 L727 147 Q728 157 728 162 Q728 175 723 184 L721 186 L721 256 Q722 258 727 283 Q730 301 737 322 Q740 328 748 338 Q756 350 756 354 Q759 362 759 373 L758 391 Q756 406 756 422 Q759 474 815 573 Q841 613 850 637 L850 639 L823 649 L852 653 Q933 670 1071 682 L1102 686 L1198 686 Q1314 675 1468 588 Q1553 538 1624 483 L1628 479 Q1655 460 1667 440 L1669 438 Q1695 435 1708 430 Q1724 425 1757 393 Q1775 376 1784 362 Q1806 327 1808 276 Q1821 269 1829 236 Q1830 229 1833 221 Z M1014 612 Q975 589 975 494 Q975 486 975 481 Q991 483 1028 483 Q1086 483 1231 471 L1344 463 L1399 459 L1559 449 Q1526 489 1442 543 Q1304 630 1172 635 L1145 635 Q1056 635 1014 612 Z M901 63 Q964 84 964 142 Q964 150 963 158 Q957 190 931.5 210.5 Q906 231 873 231 Q862 229 856 229 Q822 225 802 202 Q782 179 782 145 Q782 110 807 86 Q836 57 873 57 Q889 57 901 63 Z M1735 106 Q1740 122 1740 138 Q1740 166 1724 188 Q1698 225 1653 225 Q1652 225 1634 223 Q1609 220 1589 201 L1585 197 Q1566 177 1565 143 Q1564 107 1587 82 Q1612 55 1653 55 Q1716 55 1735 106 Z M1792 168 Q1797 182 1797 199 Q1797 225 1788 240 Q1773 265 1688 283 Q1637 298 1634 299 L1600 313 L1638 315 Q1699 315 1757 293 L1755 305 L1753 332 L1731 354 Q1707 382 1692 389 Q1684 393 1634 397 Q1616 397 1608 399 Q1547 406 1333 426 L1292 430 Q1094 444 977 465 Q983 414 1049 328 L1067 303 Q1125 225 1163 209 Q1193 197 1278 186 L1319 182 Q1345 179 1370 176 Q1438 169 1483 160 L1497 158 L1489 147 Q1475 127 1442 127 Q1425 127 1417 129 L1401 129 L1378 131 L1303 135 L1258 137 Q1159 139 1120 158 Q1096 169 1057 217 L1051 225 L932 369 L928 373 L911 395 L878 435 Q861 452 844 457 L838 459 L838 467 Q844 491 881 573 Q906 630 907 633 Q901 635 893 635 L883 635 L873 635 L868 635 Q874 626 874 616 Q874 601 856 573 Q853 569 848 559 L842 547 Q815 494 817 483 L821 479 Q832 471 832 463 L832 444 L817 457 L807 457 Q800 427 800 393 Q800 364 805 342 L834 338 Q897 327 916 315 L948 295 L901 301 Q842 308 819 308 Q800 308 786 305 Q774 272 772 256 Q783 267 795 274 Q826 295 866 295 Q936 295 985 242 Q1030 197 1030 135 Q1207 133 1491 117 Q1507 265 1632 278 Q1642 279 1652 279 Q1768 279 1792 168 Z " />
<glyph glyph-name="G" unicode="G" horiz-adv-x="2036" d="M1336 844 Q1204 844 1117 942 Q1041 1026 1041 1139 Q1041 1270 1138 1358 Q1222 1434 1336 1434 Q1450 1434 1536 1354 L1602 1418 L1610 1172 L1385 1213 L1450 1274 Q1398 1317 1336 1317 Q1255 1317 1202 1258 Q1156 1208 1156 1139 Q1156 1060 1215 1007 Q1266 961 1336 961 Q1394 961 1441.5 996.5 Q1489 1032 1505 1088 L1514 1115 L1620 1067 L1614 1045 Q1581 949 1496 893 Q1423 844 1336 844 Z M774 1042 Q848 1042 901.5 981.5 Q955 921 981 809 Q706 785 694 698 Q693 686 668 518 L324 518 Q261 518 236 549 Q205 586 205 682 Q205 721 219.5 785.5 Q234 850 253 896 Q314 1042 420 1042 L602 860 L774 1042 Z M594 1100 Q520 1100 471 1155 Q428 1202 428 1266 Q428 1340 483 1391 Q530 1434 594 1434 Q668 1434 719 1378 Q762 1330 762 1266 Q762 1192 706 1143 Q658 1100 594 1100 Z M1831 221 L1831 176 Q1828 158 1823 147 Q1817 132 1817 115 L1817 109 L1810 106 Q1798 102 1790 102 Q1763 22 1677 0 L1675 0 L1632 0 Q1611 2 1571 27 Q1558 35 1548 41 Q1541 43 1532 47 Q1515 54 1505 61 Q1497 68 1491 72 L1473 84 Q1452 88 1430 88 Q1399 88 1385 86 L1335 85 Q1321 85 1313 86 Q1286 88 1221 88 L1169 88 Q1145 88 1131 90 L1090 90 Q1063 90 1047 86 Q1038 84 1024 70 Q1001 51 989 51 Q950 12 899 0 L852 0 Q736 27 727 123 L727 147 Q728 157 728 162 Q728 175 723 184 L721 186 L721 256 Q723 262 727 283 Q730 301 737 322 Q740 328 748 338 Q756 350 756 354 Q758 362 758 373 L758 391 Q756 404 756 422 Q757 455 766.5 478.5 Q776 502 815 571 Q842 618 850 637 L823 647 L852 653 Q933 670 1071 682 L1102 684 L1196 684 Q1318 675 1468 586 Q1563 530 1622 481 L1626 479 Q1657 456 1667 440 L1669 438 Q1690 435 1706 430 Q1724 424 1757 393 Q1775 376 1784 362 Q1803 331 1806 276 Q1819 270 1829 236 Q1829 229 1831 221 Z M1014 612 Q974 590 974 503 Q974 494 975 481 Q991 483 1028 483 Q1088 483 1229 471 Q1263 467 1344 463 L1397 459 L1559 446 Q1525 491 1442 543 Q1302 630 1169 635 L1145 635 Q1056 635 1014 612 Z M901 63 Q964 85 964 143 Q964 151 963 157 Q957 190 931.5 210.5 Q906 231 872 231 L856 229 Q823 227 802.5 203.5 Q782 180 782 145 Q782 112 807 86 Q834 57 873 57 Q886 57 901 63 Z M1733 106 Q1739 125 1739 142 Q1739 168 1724 189 Q1699 226 1651 226 Q1650 226 1632 224 Q1609 221 1589 201 L1585 197 Q1566 181 1565 143 Q1564 105 1587 80 Q1610 55 1653 55 Q1714 55 1733 106 Z M1792 168 Q1796 182 1796 200 Q1796 227 1788 240 Q1773 264 1686 283 Q1639 297 1634 299 L1598 313 L1636 315 Q1690 315 1757 293 L1755 305 Q1753 313 1753 330 Q1737 346 1731 354 Q1705 384 1692 389 Q1682 393 1634 397 Q1614 397 1606 399 Q1543 406 1333 426 L1290 428 Q1078 447 977 465 Q983 416 1049 326 L1067 303 Q1128 221 1163 207 Q1187 197 1278 186 L1319 182 Q1353 178 1368 176 Q1439 169 1483 160 L1495 158 L1489 147 Q1473 127 1442 127 Q1425 127 1417 129 L1399 129 L1378 131 L1303 135 L1258 137 Q1159 139 1120 158 Q1096 169 1057 217 L1049 225 L932 369 L928 373 Q912 393 911 395 Q870 449 844 457 L836 459 L838 467 Q842 491 879 573 Q896 605 907 633 Q901 635 891 635 L883 635 L870 635 L868 635 Q874 626 874 616 Q874 601 856 573 Q850 563 848 557 L842 547 Q815 494 817 483 L821 477 Q830 471 830 463 L832 444 L817 457 L807 455 Q800 427 800 392 Q800 364 805 342 Q821 338 834 338 Q894 329 913 315 L948 295 L901 301 Q842 308 818 308 Q800 308 786 305 Q772 276 772 256 L793 274 Q826 293 866 293 Q938 293 985 241 Q1028 198 1028 135 Q1208 133 1491 117 Q1507 266 1632 279 Q1643 280 1652 280 Q1765 280 1792 168 Z " />
<glyph glyph-name="H" unicode="H" horiz-adv-x="2038" d="M1172 861 L1067 965 L1231 1129 L1067 1293 L1172 1399 L1335 1235 L1499 1399 L1604 1293 L1440 1129 L1604 965 L1499 861 L1335 1024 L1172 861 Z M774 1044 Q848 1044 902 983 Q956 922 981 809 Q705 785 694 698 Q693 686 668 518 L328 518 Q259 518 232 554 Q205 590 205 682 Q205 722 219.5 787 Q234 852 253 898 Q314 1044 420 1044 L602 860 L774 1044 Z M594 1100 Q520 1100 471 1155 Q428 1202 428 1266 Q428 1340 483 1391 Q530 1434 594 1434 Q668 1434 719 1378 Q762 1330 762 1266 Q762 1192 706 1143 Q658 1100 594 1100 Z M1831 221 L1833 176 L1825 147 Q1817 127 1817 115 L1817 109 L1813 106 Q1806 104 1792 104 L1790 104 Q1762 21 1677 0 L1634 0 Q1614 2 1571 27 L1548 41 Q1538 45 1532 47 Q1509 58 1505 61 L1493 72 L1473 84 Q1457 88 1430 88 Q1401 88 1385 86 L1335 85 Q1321 85 1313 86 Q1286 88 1221 88 L1172 88 Q1145 88 1133 90 L1090 90 Q1065 90 1049 86 Q1038 83 1024 70 Q1001 51 989 51 Q950 12 899 0 L854 0 Q736 27 727 123 L727 147 Q728 157 728 162 Q728 175 723 184 L721 186 L721 256 Q723 262 727 283 Q730 301 737 322 Q740 328 748 338 Q756 350 756 354 Q759 362 759 373 L758 391 Q756 406 756 422 Q759 474 815 573 Q841 613 850 637 L850 639 L823 649 L852 653 Q933 670 1071 682 L1102 686 L1198 686 Q1314 675 1468 588 Q1553 538 1624 483 L1628 479 Q1655 460 1667 440 L1669 438 Q1695 435 1708 430 Q1724 425 1757 393 Q1775 376 1784 362 Q1806 327 1808 276 Q1821 269 1829 236 Q1830 229 1831 221 Z M1014 612 Q975 589 975 494 Q975 486 975 481 Q991 483 1028 483 Q1086 483 1231 471 L1344 463 L1399 459 L1559 449 Q1524 492 1442 545 Q1309 630 1172 635 L1145 635 Q1056 635 1014 612 Z M901 63 Q964 84 964 142 Q964 150 963 158 Q957 190 931.5 210.5 Q906 231 873 231 Q862 229 856 229 Q822 225 802 202 Q782 179 782 145 Q782 110 807 86 Q836 57 873 57 Q889 57 901 63 Z M1735 106 Q1740 122 1740 138 Q1740 166 1724 188 Q1698 225 1653 225 Q1652 225 1634 223 Q1609 220 1589 201 L1585 197 Q1566 177 1565 143 Q1564 107 1587 82 Q1612 55 1653 55 Q1716 55 1735 106 Z M1792 168 Q1797 182 1797 199 Q1797 225 1788 240 Q1773 265 1688 283 Q1637 298 1634 299 L1600 313 L1638 315 Q1699 315 1757 293 L1755 305 L1753 332 L1731 354 Q1707 382 1692 389 Q1684 393 1634 397 Q1616 397 1608 399 Q1547 406 1333 426 L1292 430 Q1094 444 977 465 Q983 414 1049 328 L1067 303 Q1125 225 1163 209 Q1193 197 1278 186 L1319 182 Q1345 179 1370 176 Q1438 169 1483 160 L1497 158 L1489 147 Q1475 127 1442 127 Q1425 127 1417 129 L1401 129 L1378 131 L1303 135 L1258 137 Q1159 139 1120 158 Q1096 169 1057 217 L1051 225 L932 369 L928 373 L911 395 L878 435 Q861 452 844 457 L838 459 L838 467 Q844 491 881 573 Q906 630 907 633 Q901 635 893 635 L883 635 L873 635 L868 635 Q874 626 874 616 Q874 601 856 573 Q853 569 848 559 L842 547 Q815 494 817 483 L821 477 Q832 471 832 463 L832 444 L817 457 L807 457 Q800 427 800 393 Q800 364 805 342 L834 338 Q897 327 916 315 L948 295 L901 301 Q842 308 819 308 Q800 308 786 305 Q774 272 772 256 Q783 267 795 274 Q826 295 866 295 Q936 295 985 242 Q1030 197 1030 135 Q1207 133 1491 117 Q1507 265 1632 278 Q1642 279 1652 279 Q1768 279 1792 168 Z " />
<glyph glyph-name="I" unicode="I" horiz-adv-x="1931" d="M1120 831 Q981 757 903 620 Q832 496 832 354 Q832 304 842 250 L363 250 Q279 250 246 289 Q205 336 205 461 Q205 513 224 597 Q243 681 268 741 Q347 930 484 930 L719 692 L940 930 Q1047 930 1120 831 Z M709 1002 Q613 1002 549 1073 Q494 1135 494 1219 Q494 1315 565 1379 Q626 1434 709 1434 Q805 1434 869 1363 Q924 1302 924 1219 Q924 1122 853 1058 Q792 1002 709 1002 Z M1372 708 Q1530 708 1635 592 Q1727 491 1727 354 Q1727 196 1610 91 Q1508 0 1372 0 Q1214 0 1108 116 Q1016 217 1016 354 Q1016 512 1134 617 Q1235 708 1372 708 Z M1434 94 L1434 422 L1309 422 L1309 94 L1434 94 Z M1370 475 Q1406 475 1429 496 Q1452 517 1451 548 Q1450 581 1428 601.5 Q1406 622 1372 622 Q1338 622 1315 601 Q1292 580 1292 548 Q1292 516 1314 495.5 Q1336 475 1370 475 Z " />
<glyph glyph-name="J" unicode="J" horiz-adv-x="1860" d="M1532 297 L1534 283 L1536 223 Q1534 209 1526 188 L1526 186 Q1518 162 1518 147 L1518 137 L1508 133 Q1500 129 1483 129 Q1449 25 1348 0 L1346 0 L1295 0 Q1266 2 1217 33 Q1201 45 1190 51 Q1180 57 1174 59 L1170 59 L1139 76 L1125 88 L1123 90 Q1117 96 1102 104 Q1078 109 1053 109 Q1016 109 998 107 L939 106 Q925 106 914 107 Q883 109 805 109 L744 109 L699 111 L648 113 Q618 113 600 107 Q587 102 574 88 Q544 63 531 63 Q485 15 422 0 L367 0 Q230 34 214 158 Q213 162 213 168 L213 188 Q213 219 207 231 L205 236 L205 326 Q210 335 213 358 Q217 392 223 407 Q227 417 238 428 L248 446 Q249 452 249 461 L248 491 Q245 507 246 528 Q249 598 318 717 Q347 771 357 794 L359 811 L365 823 Q439 839 615 856 L662 860 L777 860 Q901 850 1047 770 L1047 686 Q898 781 744 788 L740 788 L715 788 Q610 788 561 760 Q516 733 516 624 Q516 617 516 610 L574 610 Q666 610 809 596 L824 596 Q904 588 951 586 L1029 579 L1178 569 L1373 549 L1383 545 Q1403 538 1444 498 L1446 498 Q1465 476 1477 457 Q1503 416 1506 352 Q1524 340 1532 297 Z M422 88 Q493 117 493 182 Q493 190 491 199 Q484 238 456.5 262.5 Q429 287 391 287 L371 285 Q335 282 312 254 Q289 226 289 187 Q289 144 316 117 Q348 83 392 83 Q408 83 422 88 Z M582 180 L777 174 Q715 181 682 197 Q654 210 607 270 L596 283 Q565 321 457 459 L453 465 Q440 481 432 493 Q384 557 355 567 L318 565 Q310 535 310 492 Q310 461 314 434 Q303 405 291 379 Q281 356 279 338 Q287 346 293 350 Q333 375 385 375 Q471 375 529 309 Q579 252 582 180 Z M1131 207 Q1160 315 1246 346 L1293 360 Q1322 360 1356 371 Q1408 381 1414 381 L1434 379 L1434 385 Q1432 393 1432 414 Q1422 422 1405 442 Q1381 475 1362 483 Q1358 485 1295 491 Q1274 494 1262 495 Q1238 499 936 528 L887 532 Q615 558 521 575 Q531 514 604 414 L625 385 Q695 286 738 268 Q777 252 871 244 L877 242 Q893 242 922 238 L973 231 L984 231 Q1058 223 1117 209 L1131 207 Z M1409 139 Q1416 160 1416 179 Q1416 212 1400 235 Q1370 278 1317 278 Q1304 278 1295 276 Q1263 269 1246 252 L1242 248 Q1221 224 1219 182 Q1218 138 1244 111 Q1273 80 1317 80 Q1388 80 1409 139 Z M1481 240 Q1482 247 1482 254 Q1482 285 1473 301 Q1461 323 1403 338 Q1459 310 1481 240 Z M1381 1147 L1655 1147 L1655 983 L1381 983 L1381 694 L1223 694 L1223 983 L948 983 L948 1147 L1223 1147 L1223 1434 L1381 1434 L1381 1147 Z " />
<glyph glyph-name="K" unicode="K" horiz-adv-x="2562" d="M578 1356 Q567 1368 537 1370 L490 1369 Q465 1369 453 1374 Q563 1397 940 1434 L1125 1434 Q1252 1424 1370 1381 Q1488 1338 1647 1243 Q1811 1145 1948 1040 Q2013 990 2030 962 L1858 981 Q1790 1076 1612 1188 Q1344 1358 1073 1368 Q1047 1369 1022 1369 Q843 1369 758 1321 Q673 1273 673 1087 Q673 1055 676 1024 Q683 959 712 905 Q741 851 836 723 Q925 606 944 584 Q1001 522 1051 502 Q1109 479 1212 466 L1362 450 L1682 407 Q1659 376 1603 376 L1522 381 Q1374 386 1331 389 L1133 401 Q1031 411 983 432 Q944 451 848 563 Q768 657 613 852 L528 958 Q484 1005 438 1020 L578 1356 Z M2066 129 L2357 129 L2357 0 L205 0 L205 129 L447 129 Q239 181 223 350 Q222 359 222 371 L224 423 Q224 459 211 481 L211 606 L242 735 L280 801 Q283 814 283 831 Q283 845 281 879 L280 915 Q280 925 281 934 L461 1352 Q477 1335 477 1314 Q477 1293 456 1258 Q427 1210 426 1208 L386 1128 Q366 1084 366 1062 Q366 1059 367 1055 L391 1016 Q385 1020 374 1020 Q355 1020 348 1012 Q332 957 332 880 Q332 815 344 766 L469 745 Q532 733 565 713 Q442 728 393 728 Q347 728 309 721 Q272 639 274 575 L344 631 Q409 670 483 670 Q609 670 701 573 Q781 487 781 376 Q781 369 780 360 Q1145 356 1716 322 Q1726 465 1799 549 Q1866 629 1978 641 Q1997 643 2014 643 Q2134 643 2207 566 Q2268 501 2281 395 Q2313 425 2313 499 Q2313 557 2294 588 L1986 709 Q1998 709 2009 709 Q2106 709 2238 662 L2228 766 L2099 887 Q2072 898 2013 902 L1927 907 Q1718 931 1393 958 Q863 1006 690 1036 Q738 1039 791 1039 L1409 998 Q1810 973 1943 959 L2044 951 Q2093 947 2118 938 Q2147 928 2212 864 Q2243 834 2259 809 Q2299 746 2302 641 Q2328 634 2338 598 L2349 541 L2349 455 L2318 334 Q2308 330 2271 330 Q2223 168 2066 129 Z M1827 389 Q1824 295 1891 241 Q1943 200 2015 200 Q2076 200 2123 230.5 Q2170 261 2189 313 Q2202 348 2202 384 Q2202 466 2141 520 Q2087 567 2013 567 Q1993 567 1974 564 Q1918 553 1880 514 Q1848 481 1838.5 459.5 Q1829 438 1827 389 Z M297 395 Q297 309 365 253 Q420 207 491 207 Q522 207 551 217 Q615 241 650.5 286.5 Q686 332 686 390 Q686 471 626 526 Q571 578 491 578 Q473 578 457 575 Q385 565 341 516 Q297 467 297 395 Z M711 225 Q640 151 543 129 L1966 129 Q1929 134 1885 163 Q1823 202 1819 205 L1737 243 Q1669 290 1669 291 Q1637 298 1577 298 L1398 294 Q1376 294 1354 295 Q1297 299 1190 299 L1073 299 L914 303 Q855 303 827 295 L711 225 Z " />
<glyph glyph-name="L" unicode="L" horiz-adv-x="2003" d="M961 1325 L305 961 Q282 947 254 947 Q221 947 209 967 Q205 973 205 986 Q205 1027 254 1053 L907 1420 Q936 1434 967 1434 Q996 1434 1024 1420 L1678 1053 Q1727 1027 1727 986 Q1727 976 1722 967 Q1711 948 1676 948 Q1647 948 1626 961 Q969 1328 967 1330 L961 1325 Z M686 836 Q629 805 629 627 Q629 574 669 510 Q678 497 740 416 Q809 324 833 299.5 Q857 275 891 262 Q931 247 1003 238 L1108 225 L1212 216 Q1262 211 1331 197 Q1314 174 1276 174 L1219 178 Q1125 180 1086 184 L947 192 Q875 197 842 213 Q820 223 791 255 L748 305 Q683 381 584 506 L524 582 Q494 615 463 625 L559 860 Q551 868 527 868 L498 868 Q477 868 471 870 Q608 899 675.5 907 Q743 915 848 915 Q892 915 942 913 Q1028 909 1103.5 882 Q1179 855 1307 780 Q1424 712 1518 639 Q1563 603 1575 586 Q1490 590 1454 596 Q1410 660 1282 741 Q1172 810 1085 839 Q998 868 905 868 Q743 868 686 836 Z M1765 358 Q1783 354 1790 329 L1798 289 L1798 229 L1778 145 Q1769 141 1743 141 Q1711 27 1595 0 L1538 0 Q1509 0 1476 21 L1427 53 L1370 82 L1321 115 Q1306 119 1261 119 L905 121 L799 123 Q752 123 733 117 L651 70 Q601 16 530 0 L471 0 Q394 19 351.5 65.5 Q309 112 309 178 Q309 195 311 211 Q311 232 303 248 L303 334 L323 426 L350 469 Q356 484 356 498 Q356 514 352 526 Q349 544 350 563 L477 856 Q489 844 489 831 Q489 818 473 791 L452 758 Q411 684 411 654 Q411 651 411 649 L428 621 L416 625 Q410 625 399 618 Q387 582 387 526 Q387 477 395 446 L483 432 Q526 424 549 410 Q474 422 430 422 Q398 422 371 416 Q348 363 348 313 L395 352 Q444 381 498 381 Q586 381 646 311 Q700 249 700 162 Q997 159 1356 135 Q1363 236 1420 299 Q1474 358 1552 358 Q1640 358 1693 308 Q1740 263 1749 186 Q1773 211 1773 262 Q1773 298 1759 322 L1544 408 Q1618 408 1720 375 L1714 438 L1714 446 L1624 530 Q1605 538 1562 541 L1503 545 Q1333 564 1128 582 Q787 609 637 637 Q659 639 704 639 L1141 608 Q1375 596 1515 582 Q1625 571 1634 567 Q1657 559 1702 516 Q1719 499 1735 477 Q1762 437 1765 358 Z M497 55 Q551 55 592 92.5 Q633 130 633 180 Q633 236 592 274.5 Q551 313 491 313 Q435 313 398.5 277 Q362 241 362 186 Q362 133 402.5 94 Q443 55 497 55 Z M1685 129 Q1696 160 1696 182 Q1696 236 1657 271.5 Q1618 307 1558 307 Q1506 307 1469.5 271 Q1433 235 1433 184 Q1433 125 1469.5 88 Q1506 51 1565 51 Q1607 51 1640 72.5 Q1673 94 1685 129 Z " />
<glyph glyph-name="M" unicode="M" horiz-adv-x="2027" d="M1315 982 Q1315 780 1134 646 Q977 529 764 529 Q705 529 662 537 L650 537 L215 408 Q212 407 210 407 Q207 407 207 409 L363 641 Q363 675 334 701 Q215 802 215 981 Q215 1182 396 1317 Q553 1434 764 1434 Q1009 1434 1173 1285 Q1315 1156 1315 982 Z M1721 248 Q1696 229 1696 197 L1822 1 Q1822 0 1821 0 L1452 111 Q1448 110 1440 109 Q1397 102 1352 102 Q1178 102 1046 196 Q934 277 897 395 Q1146 399 1313 553 Q1457 686 1457 864 Q1626 833 1730 717 Q1821 615 1821 487 Q1821 339 1721 248 Z " />
<glyph glyph-name="N" unicode="N" horiz-adv-x="2429" d="M1944 1434 Q2077 1434 2152 1374 Q2224 1316 2224 1213 L2224 221 Q2224 103 2132 45 Q2059 0 1944 0 L486 0 Q352 0 277 60 Q205 117 205 221 L205 1213 Q205 1330 297 1388 Q370 1434 486 1434 L1944 1434 Z M832 1200 Q748 1200 691 1138 Q643 1085 643 1013 Q643 929 705 873 Q759 825 832 825 Q914 825 970 887 Q1018 941 1018 1013 Q1018 1096 956 1152 Q903 1200 832 1200 Z M1166 254 Q1168 272 1168 299 Q1168 459 1108 566 Q1026 712 846 712 Q632 712 548 535 Q502 438 502 305 Q502 274 504 254 L1166 254 Z M1866 989 L1866 1182 L1313 1182 L1313 989 L1866 989 Z " />
<glyph glyph-name="O" unicode="O" horiz-adv-x="1843" d="M922 1434 Q1116 1434 1284 1336 Q1446 1241 1541 1079 Q1639 912 1639 717 Q1639 523 1541 355 Q1446 193 1284 98 Q1116 0 922 0 Q728 0 560 98 Q398 193 303 355 Q205 523 205 717 Q205 912 303 1079 Q398 1241 560 1336 Q728 1434 922 1434 Z M1275 703 Q1271 574 1242 451 Q1511 543 1531 699 L1275 703 Z M1240 990 Q1272 866 1275 752 Q1385 750 1529 750 L1529 766 Q1529 779 1527 787 Q1491 911 1240 990 Z M1506 889 Q1455 1059 1321 1176 Q1203 1278 1054 1311 Q1164 1224 1226 1033 Q1411 985 1506 889 Z M945 109 L1008 115 Q1119 183 1183 396 Q1070 370 945 363 L945 109 Z M656 389 Q730 152 842 115 Q854 111 875 111 L875 361 Q774 361 656 389 Z M1172 1047 Q1085 1275 945 1317 L945 1076 Q1050 1073 1172 1047 Z M875 1323 Q738 1271 660 1047 Q767 1074 875 1078 L875 1323 Z M875 1045 Q758 1041 646 1006 Q608 888 605 760 Q687 760 875 756 L875 1045 Z M875 707 L605 711 Q608 563 646 430 Q762 393 875 393 L875 707 Z M945 393 Q1069 403 1193 436 Q1226 571 1230 707 L945 707 L945 393 Z M945 756 L1230 752 Q1230 867 1187 1006 Q1055 1039 945 1045 L945 756 Z M762 1303 Q595 1259 477 1131 Q374 1021 334 875 Q431 978 603 1031 Q661 1213 762 1303 Z M316 764 Q353 764 558 760 Q561 877 590 985 Q370 899 316 764 Z M314 715 Q314 691 318 654 Q383 524 594 447 Q565 565 558 711 Q353 715 314 715 Z M336 551 Q382 392 502 278 Q606 178 742 135 Q652 228 605 404 Q433 458 336 551 Z M1097 133 Q1260 183 1374 310 Q1475 422 1510 566 Q1424 465 1232 410 Q1183 225 1097 133 Z " />
<glyph glyph-name="P" unicode="P" horiz-adv-x="1923" d="M1452 1434 L1452 1108 L471 1108 L471 1434 L1452 1434 Z M1589 1022 Q1643 1022 1680.5 984.5 Q1718 947 1718 893 L1718 260 Q1718 206 1680.5 168.5 Q1643 131 1589 131 L1421 131 L1421 760 L494 760 L494 131 L334 131 Q280 131 242.5 168.5 Q205 206 205 260 L205 893 Q205 947 242.5 984.5 Q280 1022 334 1022 L1589 1022 Z M551 0 L551 702 L1372 702 L1372 0 L551 0 Z M688 565 L688 475 L1227 475 L1227 565 L688 565 Z M688 385 L688 295 L1225 295 L1225 385 L688 385 Z M688 205 L688 115 L1225 115 L1225 205 L688 205 Z " />
<glyph glyph-name="Q" unicode="Q" horiz-adv-x="1604" d="M1379 197 Q1397 167 1397 132 Q1397 53 1323 16 Q1291 0 1254 0 Q1167 0 1127 68 L893 432 Q821 416 754 416 Q621 416 494 482 Q366 549 289 662 Q205 783 205 926 Q205 1074 294 1201 Q371 1312 492 1373 Q615 1434 754 1434 Q912 1434 1047 1356 Q1164 1287 1231 1176 Q1303 1057 1303 926 Q1303 859 1285 795 Q1248 664 1143 565 L1379 197 Z M1084 852 Q1094 893 1094 924 Q1094 999 1053 1067 Q1009 1140 928.5 1182.5 Q848 1225 754 1225 Q665 1225 586 1184 Q457 1119 424 998 Q414 959 414 926 Q414 851 455 783 Q499 710 579.5 667.5 Q660 625 754 625 Q841 625 922 664 Q1048 727 1084 852 Z " />
<glyph glyph-name="R" unicode="R" horiz-adv-x="1769" d="M1530 1118 Q1565 1055 1565 967 Q1565 848 1483 756 Q1356 606 1055 606 L1018 606 L494 27 Q436 0 373 0 Q287 0 244 61 Q205 117 205 172 Q205 227 234 266 L785 860 Q760 924 760 1014 Q760 1202 895 1338 Q991 1434 1127 1434 Q1200 1434 1256 1411 Q1157 1354 1100 1286 L1100 973 L1436 973 Q1491 1037 1530 1118 Z M388 111 Q416 111 436.5 132 Q457 153 457 183 Q457 212 437 232 Q417 252 388 252 Q358 252 338 232 Q318 212 318 183 Q318 153 338.5 132 Q359 111 388 111 Z " />
<glyph glyph-name="S" unicode="S" horiz-adv-x="1503" d="M989 1434 L1278 1128 L983 1128 L983 1436 L989 1434 Z M869 1016 L1299 1016 L1299 176 Q1299 88 1232 39 Q1178 0 1096 0 L408 0 Q313 0 257 51 Q205 99 205 176 L205 1258 Q205 1345 272 1394 Q326 1434 408 1434 L869 1434 L869 1016 Z M918 199 L1135 412 L983 412 L983 656 L852 656 L852 412 L700 412 L918 199 Z " />
<glyph glyph-name="T" unicode="T" horiz-adv-x="1473" d="M1163 1245 Q1207 1245 1237.5 1214 Q1268 1183 1268 1138 Q1268 1095 1237.5 1064.5 Q1207 1034 1163 1034 L311 1034 Q268 1034 236.5 1065 Q205 1096 205 1138 Q205 1182 236.5 1213.5 Q268 1245 311 1245 L549 1245 Q549 1329 611 1385 Q665 1434 737 1434 Q819 1434 874 1373 Q922 1321 926 1245 L1163 1245 Z M307 510 L307 973 L1168 973 L1168 106 Q1165 61 1131 30.5 Q1097 0 1049 0 L420 0 Q375 0 344 31 Q313 62 307 112 L307 510 Z M916 856 L916 229 Q916 212 928 200 Q940 188 957 188 Q974 188 986 200 Q998 212 998 229 L998 856 Q998 873 986 885 Q974 897 957 897 Q940 897 928 885 Q916 873 916 856 Z M696 856 L696 229 Q696 212 708 200 Q720 188 737 188 Q755 188 767 200 Q779 212 779 229 L779 856 Q779 873 767 885 Q755 897 737 897 Q720 897 708 885 Q696 873 696 856 Z M477 856 L477 229 Q477 212 489 200 Q501 188 518 188 Q535 188 547 200 Q559 212 559 229 L559 856 Q559 873 547 885 Q535 897 518 897 Q501 897 489 885 Q477 873 477 856 Z " />
<glyph glyph-name="U" unicode="U" horiz-adv-x="1118" d="M709 856 L901 657 L709 657 L709 856 Z M635 586 L914 586 L914 114 Q914 63 878 31.5 Q842 0 783 0 L336 0 Q277 0 241 31.5 Q205 63 205 114 L205 742 Q205 794 240.5 825 Q276 856 336 856 L635 856 L635 586 Z M764 143 L764 201 L355 201 L355 143 L764 143 Z M764 287 L764 344 L355 344 L355 287 L764 287 Z M764 430 L764 488 L355 488 L355 430 L764 430 Z M754 1204 L559 977 L365 1204 L494 1204 L494 1434 L625 1434 L625 1204 L754 1204 Z " />
<glyph glyph-name="V" unicode="V" horiz-adv-x="1843" d="M1295 1434 L1639 1120 L1639 0 L205 0 L205 1434 L516 1434 L516 872 L1240 872 L1240 1434 L1295 1434 Z M1132 1358 L1132 983 L899 983 L899 1358 L1132 1358 Z " />
<glyph glyph-name="W" unicode="W" horiz-adv-x="1765" d="M1118 1090 Q1106 1198 1025 1283 Q911 1399 686 1432 Q703 1434 731 1434 Q911 1434 1064 1370 Q1275 1283 1370 1090 L1561 1090 L1254 832 L912 1090 L1118 1090 Z M770 1222 L789 905 L508 905 L508 391 L326 375 L205 1155 L770 1222 Z M666 0 L666 719 L1489 719 L1489 0 L666 0 Z " />
<glyph glyph-name="X" unicode="X" horiz-adv-x="1843" d="M922 1434 Q1116 1434 1284 1336 Q1446 1241 1541 1079 Q1639 911 1639 717 Q1639 523 1541 355 Q1446 193 1284 98 Q1116 0 922 0 Q728 0 560 98 Q398 193 303 355 Q205 523 205 717 Q205 911 303 1079 Q398 1241 560 1336 Q728 1434 922 1434 Z M1305 461 L1051 717 L1305 973 L1161 1118 L916 871 L682 1106 L539 961 L778 717 L539 473 L682 328 L916 563 L1161 316 L1305 461 Z " />
<glyph glyph-name="Y" unicode="Y" horiz-adv-x="1622" d="M1075 793 L1211 1229 L891 1330 L942 1434 L1417 1201 L1215 791 Q1202 793 1174 793 L1075 793 Z M731 801 Q731 887 668 940 Q613 987 535 987 L453 987 L551 1300 L1055 1145 L946 793 L731 793 L731 801 Z M1174 672 Q1252 672 1296 637 Q1340 602 1340 541 L1340 131 Q1340 69 1296.5 34.5 Q1253 0 1174 0 L371 0 Q293 0 249 35 Q205 70 205 131 L205 801 Q205 829 225 846.5 Q245 864 279 864 L534 864 Q568 864 588 846.5 Q608 829 608 801 L608 672 L1174 672 Z " />
<glyph glyph-name="Z" unicode="Z" horiz-adv-x="1843" d="M975 961 Q942 922 916 893 Q889 920 858 956 Q886 965 922 965 Q957 965 975 961 Z M1161 786 Q1077 797 1071 805 Q1082 842 1100 889 Q1143 846 1161 786 Z M682 786 Q696 835 733 879 Q758 815 758 805 L758 803 Q727 793 682 786 Z M1159 641 Q1139 581 1098 543 Q1082 588 1071 623 Q1108 633 1159 641 Z M864 475 Q891 508 916 530 Q940 508 969 473 Q953 469 922 469 Q892 469 864 475 Z M686 637 Q727 631 758 621 Q750 590 735 551 Q702 588 686 637 Z M922 1249 Q1157 1249 1315 1073 Q1452 921 1452 717 Q1452 481 1277 323 Q1126 186 922 186 Q686 186 528 361 Q391 512 391 717 Q391 952 566 1111 Q718 1249 922 1249 Z M1307 745 Q1299 834 1254.5 910.5 Q1210 987 1137 1036 L1043 786 Q1044 785 1307 745 Z M922 1102 Q834 1102 750 1063 L918 858 L1086 1065 Q1009 1102 922 1102 Z M699 1030 Q549 924 537 743 L791 786 L791 788 L699 1030 Z M539 680 Q554 505 699 401 L791 640 L791 641 L539 680 Z M922 331 Q1006 331 1082 367 L916 567 Q912 567 756 369 Q837 331 922 331 Z M1135 395 Q1292 503 1305 686 L1043 641 L1135 395 Z M922 1434 Q1116 1434 1284 1336 Q1446 1241 1541 1079 Q1639 911 1639 717 Q1639 523 1541 355 Q1446 193 1284 98 Q1116 0 922 0 Q728 0 560 98 Q398 193 303 355 Q205 523 205 717 Q205 911 303 1079 Q398 1241 560 1336 Q728 1434 922 1434 Z M922 162 Q1072 162 1201 238 Q1326 312 1399 437 Q1475 567 1475 717 Q1475 868 1399 997 Q1326 1123 1201 1196 Q1072 1272 922 1272 Q772 1272 643 1196 Q517 1123 443 997 Q367 868 367 717 Q367 567 443 437 Q517 312 643 238 Q772 162 922 162 Z " />
<glyph glyph-name="bracketleft" unicode="&#x5b;" horiz-adv-x="1843" d="M1639 457 L1426 240 L922 758 L418 240 L205 457 L922 1194 L1639 457 Z " />
<glyph glyph-name="backslash" unicode="&#x5c;" horiz-adv-x="1851" d="M1354 584 L1372 639 L1616 533 Q1525 267 1317 123 Q1139 0 922 0 Q727 0 560 98 Q398 193 303 355 Q205 523 205 717 Q205 911 303 1079 Q398 1241 560 1336 Q727 1434 922 1434 Q1187 1434 1387 1260 L1532 1395 L1647 750 L1032 930 L1192 1078 Q1072 1170 922 1170 Q721 1170 586 1020 Q469 891 469 717 Q469 516 618 381 Q748 264 922 264 Q1080 264 1205 365 Q1314 452 1354 584 Z " />
<glyph glyph-name="bracketright" unicode="&#x5d;" horiz-adv-x="1843" d="M1639 977 L922 240 L205 977 L418 1194 L922 676 L1426 1194 L1639 977 Z " />
<glyph glyph-name="asciicircum" unicode="&#x5e;" horiz-adv-x="1843" d="M1639 457 L1426 240 L922 758 L418 240 L205 457 L922 1194 L1639 457 Z " />
<glyph glyph-name="underscore" unicode="&#x5f;" horiz-adv-x="1462" d="M205 764 L1258 764 L1258 0 L205 0 L205 764 Z M808 174 L742 369 L750 371 Q820 399 820 471 Q820 516 789 547 Q758 578 713 578 Q669 578 637.5 546.5 Q606 515 606 471 Q606 399 676 371 L684 369 L620 174 L808 174 Z M481 969 L481 807 L305 807 L305 969 Q305 1175 446 1314 Q568 1434 731 1434 Q919 1434 1047 1280 Q1157 1147 1157 969 L1157 807 L981 807 L981 969 Q981 1097 898 1184 Q827 1258 731 1258 Q620 1258 546 1163 Q481 1080 481 969 Z " />
<glyph glyph-name="grave" unicode="&#x60;" horiz-adv-x="1851" d="M1612 721 Q1647 686 1647 639 Q1647 594 1616 563 L1079 31 Q1049 0 1006 0 Q957 0 922 35 L238 715 Q205 748 205 1143 L207 1385 L256 1432 L531 1434 Q895 1434 928 1401 L1612 721 Z M539 1114 Q565 1141 565 1180 Q565 1219 538 1245 Q512 1272 471 1272 Q430 1272 404 1245 Q375 1217 375 1180 Q375 1143 404 1115 Q432 1086 471 1086 Q510 1086 539 1114 Z " />
<glyph glyph-name="a" unicode="a" horiz-adv-x="1843" d="M1639 684 L1217 301 L1217 582 L627 582 L627 301 L205 684 L627 1133 L627 850 L1217 850 L1217 1133 L1639 684 Z " />
<glyph glyph-name="b" unicode="b" horiz-adv-x="1843" d="M1639 469 L1303 248 L1303 379 L1039 379 L1027 381 L822 592 L617 379 L205 379 L205 549 L531 549 L697 721 L537 887 L205 887 L205 1055 L621 1055 L822 850 L1022 1055 L1297 1055 L1297 1186 L1633 965 L1297 742 L1297 885 L1100 885 L949 721 L1104 549 L1303 549 L1303 692 L1639 469 Z " />
<glyph glyph-name="c" unicode="c" horiz-adv-x="1843" d="M879 430 L879 289 L531 289 L531 381 Q551 415 588 453 Q611 476 678 524 Q707 544 723 557 L752 584 Q761 597 764 609 Q768 625 768 635 Q768 661 752 679 Q737 695 699 695 Q674 695 658 687 Q637 676 629 670 L629 629 L541 629 L541 727 L574 750 Q588 760 615 770 Q634 778 662 785 Q688 791 717 791 Q790 791 836 750 Q879 711 879 637 Q879 578 852 543 Q825 507 777 473 Q730 442 709 424 Q683 401 672 385 L793 385 L793 430 L879 430 Z M1168 389 Q1190 403 1190 428 Q1190 457 1163 471 Q1137 485 1096 485 L1039 485 L1039 582 L1094 582 Q1131 582 1153 598 Q1176 614 1176 637 Q1176 662 1158 677 Q1139 691 1104 691 Q1071 691 1047 682 L996 659 L955 743 Q997 768 1031 779 Q1071 791 1123 791 Q1204 791 1248 756 Q1293 723 1293 658 Q1293 630 1287 610 Q1280 589 1268 576 Q1250 555 1244 551 Q1226 539 1215 535 Q1230 532 1248 522 Q1270 510 1278 500 Q1293 482 1299 465 Q1309 436 1309 416 Q1309 378 1293 350 Q1275 321 1254 307 Q1228 290 1192 282 Q1155 274 1119 274 Q1066 274 1023 284 Q982 294 939 317 L980 408 Q1014 392 1035 384 Q1064 374 1102 374 Q1148 374 1168 389 Z M1375 1434 Q1500 1434 1574 1357 Q1639 1291 1639 1192 L1639 242 Q1639 127 1556 59 Q1484 0 1375 0 L469 0 Q344 0 270 76 Q205 142 205 242 L205 1192 Q205 1306 288 1374 Q361 1434 469 1434 L1375 1434 Z M1199 1303 Q1162 1303 1136 1277 Q1110 1251 1110 1215 Q1110 1179 1136 1153 Q1162 1127 1199 1127 Q1236 1127 1261.5 1152.5 Q1287 1178 1287 1215 Q1287 1252 1261.5 1277.5 Q1236 1303 1199 1303 Z M635 1303 Q598 1303 572.5 1277.5 Q547 1252 547 1215 Q547 1178 572.5 1152.5 Q598 1127 635 1127 Q672 1127 697.5 1152.5 Q723 1178 723 1215 Q723 1252 697.5 1277.5 Q672 1303 635 1303 Z M1512 242 L1512 963 L332 963 L332 242 Q332 189 369 158 Q406 127 469 127 L1375 127 Q1438 127 1475 158 Q1512 189 1512 242 Z " />
<glyph glyph-name="d" unicode="d" horiz-adv-x="1716" d="M612 1434 L1511 1290 L1319 86 L1159 111 L1159 1235 L581 1235 L612 1434 Z M205 0 L205 1190 L1114 1190 L1114 0 L205 0 Z M625 916 L625 860 L993 860 L993 916 L625 916 Z M453 1078 Q415 1078 389 1051.5 Q363 1025 363 988 Q363 951 389.5 925 Q416 899 453 899 Q490 899 516.5 925 Q543 951 543 988 Q543 1025 517 1051.5 Q491 1078 453 1078 Z M336 788 L336 729 L993 729 L993 788 L336 788 Z M336 661 L336 600 L993 600 L993 661 L336 661 Z M336 532 L336 471 L993 471 L993 532 L336 532 Z M336 403 L336 344 L993 344 L993 403 L336 403 Z M336 274 L336 215 L607 215 L607 274 L336 274 Z " />
<glyph glyph-name="e" unicode="e" horiz-adv-x="1843" d="M1106 496 Q1063 468 1063 419 Q1063 374 1101 307 Q1106 298 1153 225 L1045 2 Q1012 0 980 0 Q597 0 377 256 Q205 457 205 725 Q205 879 261 1009 Q318 1138 420 1212 L434 1190 L451 1212 Q478 1212 478 1202 L447 1134 Q447 1126 451 1118 Q460 1117 467 1117 L592 1165 L842 639 Q923 636 997 578 Q1096 502 1106 496 Z M918 1434 Q1107 1434 1271 1341 Q1438 1247 1535 1083 Q1639 907 1639 689 Q1621 473 1523 320 Q1435 185 1295 115 L1303 138 L1278 146 L1389 385 L1264 562 Q1236 564 1216 564 Q1129 564 1092 529 L1016 622 Q1016 636 1028 656 Q1021 659 1013 659 L954 638 Q942 638 934 655 Q925 671 925 686 Q925 718 961.5 743 Q998 768 1045 768 L1095 703 Q1100 703 1106 705 Q1105 795 1154 844 Q1203 893 1325 926 Q1284 1120 1153 1166 Q1135 1165 1135 1139 L1140 1082 Q1140 1056 1123 1055 Q1010 1104 998 1198 Q1002 1213 1031 1213 L1071 1212 Q1107 1212 1107 1236 Q1107 1240 1106 1246 Q1081 1296 1005 1296 L840 1281 Q779 1281 748 1309 Q709 1286 664 1286 Q590 1286 545 1342 Q723 1434 918 1434 Z " />
<glyph glyph-name="f" unicode="f" horiz-adv-x="954" d="M569 977 L750 977 L750 782 L569 782 L569 0 L297 0 L297 782 L205 782 L205 977 L293 977 L293 1108 Q293 1276 350 1340 Q408 1434 637 1434 Q657 1434 684 1432 Q728 1429 742 1428 L742 1204 Q717 1209 653 1209 Q609 1209 590 1184 Q569 1159 569 1129 L569 977 Z " />
<glyph glyph-name="g" unicode="g" horiz-adv-x="2032" d="M1575 1182 L1827 1182 L1827 1078 L1575 1078 L1575 823 L1469 823 L1469 1078 L1217 1078 L1217 1182 L1469 1182 L1469 1434 L1575 1434 L1575 1182 Z M1125 1407 L1008 1339 L899 1339 Q1026 1224 1026 1087 Q1026 1071 1024 1056 Q1010 959 942 891 L860 820 Q819 782 819 741 Q819 727 821 719 Q826 698 835 688 Q844 678 893 639 Q953 592 975 571 Q1039 512 1064.5 463.5 Q1090 415 1090 352 L1088 323 Q1082 196 968 110 Q885 47 762 18 Q693 2 609 2 Q432 2 322 66 Q205 135 205 264 Q205 338 249.5 400.5 Q294 463 375 504 Q499 567 692 573 L651 649 Q643 668 643 694 Q643 735 662 772 Q645 770 615 770 Q476 770 384 855 Q297 935 297 1056 Q297 1181 384 1275 Q451 1347 547 1378 Q639 1409 803 1409 L1043 1405 Q1098 1405 1125 1407 Z M955 330 Q941 389 861 460 Q793 522 748 522 L701 520 Q538 516 451 457 Q399 422 379 364 Q369 335 369 307 Q369 255 392 211 Q423 151 505 114.5 Q587 78 693 78 Q808 78 875 119 Q963 172 963 272 Q963 302 955 330 Z M846 911 Q862 946 862 1003 Q862 1065 840 1137 Q818 1209 786 1253 Q722 1341 631 1341 L617 1341 Q569 1337 530.5 1310.5 Q492 1284 475 1245 Q461 1210 461 1147 Q461 1035 517 940 Q566 857 633 831 Q660 821 694 821 Q743 821 785 846 Q827 871 846 911 Z " />
<glyph glyph-name="h" unicode="h" horiz-adv-x="2994" d="M2630 998 Q2673 979 2790 938 Q2618 880 2577 856 L2103 193 Q2020 114 1832 51 Q1679 0 1579 0 Q1197 0 916 129 Q527 307 330 517 Q205 651 205 729 Q205 752 219 752 Q272 752 385 715 Q599 647 797 647 Q1029 647 1240 727 Q1285 744 1333.5 768 Q1382 792 1382 797 L1381 797 Q1367 793 1298 846.5 Q1229 900 1176 955 Q1022 1114 1022 1244 Q1022 1289 1039 1321 L1047 1325 Q1068 1325 1107 1304.5 Q1146 1284 1360 1161 Q1325 1238 1325 1348 Q1325 1434 1354 1434 Q1362 1432 1368 1428 Q1484 1344 1780 1104 L1978 1266 Q2085 1340 2194 1340 Q2299 1340 2405 1268 L2630 998 Z M2275 1104 Q2247 1104 2229.5 1084 Q2212 1064 2212 1031 Q2212 996 2229.5 975.5 Q2247 955 2275 955 Q2306 955 2327.5 976.5 Q2349 998 2349 1029 Q2349 1060 2327.5 1082 Q2306 1104 2275 1104 Z " />
<glyph glyph-name="i" unicode="i" horiz-adv-x="1843" d="M922 1434 Q1116 1434 1283 1336 Q1445 1241 1540 1078 Q1638 911 1638 717 Q1638 522 1540 355 Q1445 193 1283 98 Q1116 0 922 0 Q727 0 560 98 Q398 193 303 355 Q205 522 205 717 Q205 911 303 1078 Q398 1241 560 1336 Q727 1434 922 1434 Z M1032 270 L1032 854 L811 854 L811 270 L1032 270 Z M919 948 Q983 948 1022.5 984.5 Q1062 1021 1061 1079 Q1060 1137 1021.5 1172.5 Q983 1208 922 1208 Q860 1208 821 1172 Q782 1136 782 1079 Q782 1021 820.5 984.5 Q859 948 919 948 Z " />
<glyph glyph-name="j" unicode="j" horiz-adv-x="1720" d="M1266 498 Q1377 498 1451 416 Q1516 346 1516 250 Q1516 138 1433 64 Q1362 0 1266 0 Q1155 0 1081 82 Q1016 153 1016 250 L1018 287 L699 533 Q616 436 486 436 Q362 436 278 528 Q205 609 205 717 Q205 842 298 926 Q378 998 486 998 Q617 998 701 897 L1024 1125 Q1016 1149 1016 1184 Q1016 1295 1099 1369 Q1170 1434 1266 1434 Q1376 1434 1451 1351 Q1516 1280 1516 1184 Q1516 1074 1433 1000 Q1362 936 1266 936 Q1168 936 1096 1002 L758 791 Q766 761 766 717 Q766 680 758 649 L1090 426 Q1161 498 1266 498 Z " />
<glyph glyph-name="k" unicode="k" horiz-adv-x="1874" d="M1653 1215 Q1669 1179 1669 1137 Q1669 1059 1632 1022 Q1598 989 1455.5 934 Q1313 879 1260 879 Q1227 879 1221 895 Q1204 932 1160 991 Q1116 1050 1100 1057 L1084 1057 Q997 1057 772 873 Q683 799 624 684 Q582 601 582 557 L582 549 L715 436 Q715 394 666.5 211 Q618 28 600 4 Q590 0 580 0 Q532 0 464 24.5 Q396 49 345 85 Q205 183 205 342 Q205 367 209 397 Q259 775 708 1126 Q871 1255 1047 1345 Q1160 1404 1233 1424 Q1270 1434 1315 1434 Q1441 1434 1554 1336 Q1625 1274 1653 1215 Z " />
<glyph glyph-name="l" unicode="l" horiz-adv-x="1944" d="M1739 246 L1454 0 L1454 164 L1166 164 L1166 328 L1454 328 L1454 492 L1739 246 Z M1313 610 L1313 463 L1008 463 L1008 207 L205 207 L205 1434 L1579 1434 L1579 610 L1313 610 Z M449 793 L449 872 L377 872 L377 793 L449 793 Z M756 815 Q793 846 799 907 L721 907 Q714 848 660 848 Q631 848 611.5 874.5 Q592 901 592 940 Q592 983 611.5 1010 Q631 1037 662 1037 Q712 1037 721 985 L799 985 Q799 1015 787 1037 Q752 1100 662 1100 Q593 1100 548 1046 Q510 1000 510 938 Q510 873 553 829 Q596 785 660 785 Q719 785 756 815 Z M1094 838 Q1106 859 1106 889 Q1106 911 1098 924 Q1081 949 1047 962 Q1042 964 951 987 Q938 990 928 1000 Q920 1010 920 1016 Q920 1045 965 1045 Q1018 1045 1020 1004 L1098 1004 Q1094 1036 1084 1051 Q1048 1100 969 1100 Q909 1100 874.5 1074.5 Q840 1049 840 1004 Q840 971 859.5 954.5 Q879 938 934 924 Q981 914 1002 905 Q1024 896 1024 877 Q1024 860 1009.5 849 Q995 838 973 838 Q936 838 916 866 Q910 875 910 889 L834 889 Q834 842 871.5 813.5 Q909 785 971 785 Q1056 785 1094 838 Z M1125 1092 L1227 793 L1317 793 L1415 1092 L1335 1092 L1272 887 L1211 1092 L1125 1092 Z " />
<glyph glyph-name="m" unicode="m" horiz-adv-x="1944" d="M1739 246 L1454 0 L1454 164 L1166 164 L1166 328 L1454 328 L1454 492 L1739 246 Z M719 1010 Q726 995 729 977 Q733 953 733 940 Q733 928 729 903 Q726 883 719 871 Q710 854 700 848 Q687 840 670 840 Q652 840 639 848 Q633 852 619 870 Q610 891 608 903 Q604 929 604 940 Q604 954 608 979 Q612 1001 619 1010 Q625 1025 639 1034 Q653 1042 668 1042 Q685 1042 699 1034 Q708 1029 719 1010 Z M1045 1012 Q1053 991 1055 979 Q1057 967 1057 942 Q1057 915 1055 903 Q1052 885 1045 873 Q1035 855 1024 848 Q1011 840 993 840 Q982 840 965 850 Q952 858 944 873 Q940 881 934 905 Q930 922 930 942 Q930 967 932 979 Q935 993 944 1011 Q953 1027 965 1034 Q980 1042 993 1042 Q1011 1042 1024 1034 Q1031 1030 1045 1012 Z M1313 610 L1313 463 L1008 463 L1008 207 L205 207 L205 1434 L1579 1434 L1579 610 L1313 610 Z M463 793 L463 872 L391 872 L391 793 L463 793 Z M799 876 Q807 903 807 938 Q807 968 799 1001 Q791 1032 776 1057 Q764 1077 739 1094 Q718 1108 684 1108 Q660 1108 639 1096 Q620 1085 604 1059 L604 1100 L533 1100 L533 674 L608 674 L608 823 Q621 797 643 786 Q663 776 688 776 Q721 776 741 789 Q764 802 778 825 Q793 849 799 876 Z M1129 782 L1129 1219 L1055 1219 L1055 1061 Q1042 1083 1020 1096 Q999 1108 975 1108 Q946 1108 922 1094 Q901 1082 885 1057 Q870 1035 862 1005 Q856 982 856 944 Q856 905 862 880 Q871 846 885 825 Q900 803 924 789 Q944 776 977 776 Q1006 776 1024 786 Q1043 797 1059 823 L1059 782 L1129 782 Z M1202 1036 L1247 1036 L1247 780 L1321 780 L1321 1036 L1372 1036 L1372 1096 L1321 1096 L1321 1114 Q1321 1127 1327 1141 Q1334 1151 1350 1151 L1376 1149 L1376 1213 L1337 1215 Q1292 1215 1270 1188 Q1247 1161 1247 1121 L1247 1096 L1202 1096 L1202 1036 Z " />
<glyph glyph-name="n" unicode="n" horiz-adv-x="1944" d="M1739 246 L1454 0 L1454 164 L1166 164 L1166 328 L1454 328 L1454 492 L1739 246 Z M1313 610 L1313 463 L1008 463 L1008 207 L205 207 L205 1434 L1579 1434 L1579 610 L1313 610 Z M502 793 L502 872 L428 872 L428 793 L502 793 Z M760 793 L848 793 L748 950 L840 1092 L754 1092 L703 1010 L656 1092 L566 1092 L662 946 L561 793 L648 793 L703 884 L760 793 Z M985 793 L985 1207 L914 1207 L914 793 L985 793 Z M1295 848 Q1303 872 1303 884 Q1303 906 1291 925 Q1281 941 1266 950 Q1250 960 1213 969 L1168 981 Q1151 985 1139 989 Q1133 991 1127 999 Q1125 1004 1123 1012 Q1123 1020 1127 1028 Q1135 1045 1168 1045 Q1207 1045 1223 1024 Q1227 1012 1227 1001 L1293 1001 Q1293 1024 1283 1045 Q1275 1059 1256 1073 Q1244 1082 1217 1090 Q1195 1096 1172 1096 Q1151 1096 1131 1090 Q1107 1083 1094 1073 Q1076 1061 1067 1047 Q1059 1034 1059 1008 Q1059 988 1065 973 Q1078 955 1086 950 Q1118 929 1180 917 Q1187 916 1209 909 Q1217 906 1231 897 Q1237 888 1237 878 Q1237 870 1231 860 Q1223 852 1217 848 Q1205 844 1198 844 Q1192 842 1180 842 L1153 846 Q1144 847 1133 854 Q1127 858 1118 870 Q1112 879 1112 895 L1049 895 Q1049 869 1059 850 Q1070 830 1088 817 Q1104 806 1129 799 Q1152 793 1176 793 Q1212 793 1231 799 Q1253 806 1270 819 Q1284 830 1295 848 Z " />
<glyph glyph-name="o" unicode="o" horiz-adv-x="1843" d="M922 1434 Q1116 1434 1284 1336 Q1446 1241 1541 1079 Q1639 911 1639 717 Q1639 523 1541 355 Q1446 193 1284 98 Q1116 0 922 0 Q728 0 560 98 Q398 193 303 355 Q205 523 205 717 Q205 911 303 1079 Q398 1241 560 1336 Q728 1434 922 1434 Z M922 287 Q1113 287 1241 429 Q1352 552 1352 717 Q1352 908 1210 1036 Q1087 1147 922 1147 Q731 1147 603 1005 Q492 882 492 717 Q492 526 634 398 Q757 287 922 287 Z " />
<glyph glyph-name="p" unicode="p" horiz-adv-x="1864" d="M205 0 L307 408 L608 106 L205 0 Z M1635 1221 Q1659 1197 1659 1162 Q1659 1126 1635 1104 L1510 990 L1209 1289 L1321 1409 Q1346 1434 1381 1434 Q1412 1434 1438 1411 L1635 1221 Z M404 502 L1112 1196 L1411 895 L705 203 L404 502 Z " />
<glyph glyph-name="q" unicode="q" horiz-adv-x="1843" d="M1638 711 L1376 490 L1376 637 L748 637 L748 784 L1376 784 L1376 931 L1638 711 Z M1071 379 L1071 500 L1225 500 L1225 225 L205 225 L205 1208 L1225 1208 L1225 932 L1071 932 L1071 1054 L359 1054 L359 379 L1071 379 Z " />
<glyph glyph-name="r" unicode="r" horiz-adv-x="1769" d="M1530 1118 Q1565 1055 1565 967 Q1565 848 1483 756 Q1356 606 1055 606 L1018 606 L494 27 Q436 0 373 0 Q287 0 244 61 Q205 117 205 172 Q205 227 234 266 L785 860 Q760 924 760 1014 Q760 1202 895 1338 Q991 1434 1129 1434 Q1202 1434 1256 1411 Q1157 1354 1100 1286 L1100 973 L1436 973 Q1491 1037 1530 1118 Z M388 111 Q416 111 436.5 132 Q457 153 457 183 Q457 212 437 232 Q417 252 388 252 Q358 252 338 232 Q318 212 318 183 Q318 153 338.5 132 Q359 111 388 111 Z " />
<glyph glyph-name="s" unicode="s" horiz-adv-x="1948" d="M1217 68 Q1154 36 1071 17.5 Q988 -1 922 2 Q625 2 414 213 Q306 320 252 464 Q205 588 205 719 Q205 1016 414 1225 Q522 1333 661 1388 Q787 1437 922 1436 Q1062 1436 1186 1387 L1217 1373 L1217 961 Q1187 981 1174 987 Q1048 1052 932 1052 Q849 1052 762 1010 Q689 972 641 890 Q593 808 593 721 Q593 668 611 614 Q629 550 688 489 Q787 387 947 387 Q1001 384 1077.5 410 Q1154 436 1217 479 L1217 68 Z M1292 1333 Q1600 1082 1743 719 Q1602 366 1298 111 L1292 106 L1292 1333 Z " />
<glyph glyph-name="t" unicode="t" horiz-adv-x="1475" d="M834 323 Q854 323 867.5 308.5 Q881 294 881 274 Q881 225 834 225 Q815 225 801 239.5 Q787 254 787 274 Q787 294 801 308.5 Q815 323 834 323 Z M205 1434 L1270 1434 L1270 0 L205 0 L205 1434 Z M463 1117 Q361 1011 361 869 Q361 724 465 619 Q567 517 712 517 Q788 513 858 547 L858 750 Q786 703 725 705 Q667 705 620.5 736 Q574 767 561 816 Q552 842 552 869 Q552 912 575.5 952.5 Q599 993 635 1010 Q668 1034 722 1034 Q778 1034 836 1000 Q856 987 858 985 L858 1188 Q848 1192 842 1194 Q781 1218 712 1219 Q570 1221 463 1117 Z M432 193 Q466 193 487 206.5 Q508 220 508 242 Q508 285 447 291 Q406 296 406 310 Q406 326 439 326 Q464 326 484 310 L506 332 Q475 357 432 357 Q405 357 387 343 Q369 329 369 308 Q369 268 436 259 Q469 255 469 240 Q469 225 440 225 Q403 225 383 246 L361 222 Q392 193 432 193 Z M731 197 L731 304 Q730 327 713.5 342 Q697 357 674 357 Q645 357 631 336 Q613 357 586 357 Q562 357 546 342 Q530 327 528 304 L528 197 L563 197 L563 300 Q563 324 588 324 Q612 324 612 295 L612 197 L647 197 L647 295 Q647 324 672 324 Q696 324 696 300 L696 197 L731 197 Z M913 197 L913 275 Q913 311 890.5 334 Q868 357 833 357 Q800 357 777 333.5 Q754 310 754 275 Q754 240 777 216.5 Q800 193 836 193 Q863 193 879 211 L879 197 L913 197 Z M1014 322 L1014 355 L997 355 Q973 355 956.5 338.5 Q940 322 938 298 L938 197 L973 197 L973 295 Q973 322 997 322 L1014 322 Z M1108 197 L1108 230 L1092 230 Q1082 230 1074.5 237.5 Q1067 245 1067 254 L1067 322 L1106 322 L1106 355 L1067 355 L1067 386 L1032 386 L1032 252 Q1034 229 1050.5 213 Q1067 197 1089 197 L1108 197 Z M897 568 Q1051 697 1116 869 Q1047 1044 895 1170 L895 566 L897 568 Z " />
<glyph glyph-name="u" unicode="u" horiz-adv-x="1520" d="M416 765 L416 831 L1102 831 L1102 765 L416 765 Z M707 1010 L707 944 L416 944 L416 1010 L707 1010 Z M416 598 L416 664 L1102 664 L1102 598 L416 598 Z M416 432 L416 495 L1102 495 L1102 432 L416 432 Z M416 264 L416 330 L1102 330 L1102 264 L416 264 Z M910 1038 L1315 1038 L1315 205 Q1315 108 1243 50 Q1180 0 1086 0 L435 0 Q326 0 261 65 Q205 121 205 205 L205 1229 Q205 1326 277 1384 Q340 1434 435 1434 L910 1434 L910 1038 Z M1239 205 L1239 960 L834 960 L834 1358 L435 1358 Q365 1358 323 1322.5 Q281 1287 281 1229 L281 205 Q281 146 323 111 Q365 76 435 76 L1086 76 Q1155 76 1197 111 Q1239 146 1239 205 Z M985 1395 L1259 1106 L985 1106 L985 1395 Z " />
<glyph glyph-name="v" unicode="v" horiz-adv-x="1843" d="M922 1434 Q1116 1434 1284 1336 Q1446 1241 1541 1079 Q1639 911 1639 717 Q1639 523 1541 355 Q1446 193 1284 98 Q1116 0 922 0 Q728 0 560 98 Q398 193 303 355 Q205 523 205 717 Q205 911 303 1079 Q398 1241 560 1336 Q728 1434 922 1434 Z M973 156 Q1190 175 1338 338 Q1466 479 1483 668 L1176 668 L1176 770 L1483 770 Q1462 986 1300 1133 Q1160 1261 973 1278 L973 973 L871 973 L871 1278 Q656 1258 507 1097 Q379 957 361 770 L668 770 L668 668 L361 668 Q379 451 541 302 Q682 173 871 156 L871 465 L973 465 L973 156 Z " />
<glyph glyph-name="w" unicode="w" horiz-adv-x="2138" d="M959 1282 L1934 1282 L1934 1158 L1639 1158 L1639 1223 L1211 1223 L1211 1158 L205 1158 L205 1344 L301 1434 L844 1434 L959 1282 Z M1639 350 L1639 999 L1934 999 L1934 0 L205 0 L205 999 L1213 999 L1213 346 L1274 346 L1381 455 L1467 455 L1573 350 L1639 350 Z " />
<glyph glyph-name="x" unicode="x" horiz-adv-x="1843" d="M1135 717 L1639 213 L1426 0 L922 504 L418 0 L205 213 L709 717 L205 1221 L418 1434 L922 930 L1426 1434 L1639 1221 L1135 717 Z " />
<glyph glyph-name="y" unicode="y" horiz-adv-x="1499" d="M1295 653 L1026 383 L1096 10 L756 182 L422 0 L481 375 L205 637 L580 698 L744 1040 L918 702 L1295 653 Z M553 775 L457 760 L262 928 L262 1434 L1190 1434 L1190 918 L1030 768 L938 781 L739 1168 L553 775 Z " />
<glyph glyph-name="z" unicode="z" horiz-adv-x="1909" d="M1704 887 L1329 518 L1417 0 L955 246 L492 0 L580 518 L205 887 L723 963 L955 1434 L1186 963 L1704 887 Z " />
<glyph glyph-name="braceleft" unicode="&#x7b;" horiz-adv-x="1843" d="M922 1434 Q1116 1434 1284 1336 Q1446 1241 1541 1079 Q1639 911 1639 717 Q1639 523 1541 355 Q1446 193 1284 98 Q1116 0 922 0 Q728 0 560 98 Q398 193 303 355 Q205 523 205 717 Q205 911 303 1079 Q398 1241 560 1336 Q728 1434 922 1434 Z M799 424 L885 510 L678 717 L885 924 L799 1010 L504 717 L799 424 Z M1266 510 L1059 717 L1266 924 L1180 1010 L885 717 L1180 424 L1266 510 Z " />
<glyph glyph-name="bar" unicode="&#x7c;" horiz-adv-x="1843" d="M922 1434 Q1116 1434 1284 1336 Q1446 1241 1541 1079 Q1639 911 1639 717 Q1639 523 1541 355 Q1446 193 1284 98 Q1116 0 922 0 Q728 0 560 98 Q398 193 303 355 Q205 523 205 717 Q205 911 303 1079 Q398 1241 560 1336 Q728 1434 922 1434 Z M1010 356 L1221 569 L1133 658 L920 447 L709 658 L619 569 L920 266 L1010 356 Z M1135 776 L1225 865 L924 1168 L621 865 L711 776 L924 987 L1135 776 Z " />
<glyph glyph-name="braceright" unicode="&#x7d;" horiz-adv-x="1843" d="M922 1434 Q1116 1434 1284 1336 Q1446 1241 1541 1079 Q1639 911 1639 717 Q1639 523 1541 355 Q1446 193 1284 98 Q1116 0 922 0 Q728 0 560 98 Q398 193 303 355 Q205 523 205 717 Q205 911 303 1079 Q398 1241 560 1336 Q728 1434 922 1434 Z M664 424 L959 717 L664 1010 L578 924 L785 717 L578 510 L664 424 Z M1045 424 L1340 717 L1045 1010 L959 924 L1166 717 L959 510 L1045 424 Z " />
<glyph glyph-name="asciitilde" unicode="&#x7e;" horiz-adv-x="2546" d="" />
<glyph glyph-name="Adieresis" unicode="&#xc4;" horiz-adv-x="2599" d="M236 477 Q229 465 225 465 Q221 465 221 485 Q221 569 272 633 Q303 675 303 692 Q303 711 340 711 Q384 711 381 680 Q377 645 348 617 Q297 573 293 553 Q293 547 289 545 Q256 512 236 477 Z M850 1053 Q712 1070 712 1088 Q712 1099 772 1099 Q812 1099 866 1094 Q1291 1054 2061 938 Q2121 930 2167 899 Q2207 874 2249 828 Q2282 792 2282 750 L2277 689 Q2277 655 2295 625 L2343 543 Q2343 542 2343 539 Q2343 527 2335 527 Q2331 527 2329 530 Q2280 575 2241 596 Q2223 607 2218.5 618.5 Q2214 630 2214 664 Q2214 674 2214 686 L2216 750 Q2214 776 2204 786 Q2151 841 2127 857 Q2103 873 2065 879 Q1261 1002 850 1053 Z M1845 1026 Q1666 1175 1495 1270 Q1386 1329 1286 1358 L1297 1434 Q1438 1394 1596.5 1301 Q1755 1208 2063 985 Q2065 981 2065 977 Q2065 969 2056 969 Q2052 969 2050 969 L1886 998 Q1868 1001 1860 1008 L1845 1026 Z M910 244 Q920 242 920 234 Q920 227 912 215 Q869 158 833 131.5 Q797 105 740 88 Q712 79 693 63 Q612 0 506 0 Q373 0 283 99 Q205 185 205 301 Q205 434 304 524 Q391 602 506 602 Q640 602 730 502 Q809 415 807 301 Q807 263 811 255 Q815 247 836 246 Q877 244 910 244 Z M506 82 Q603 82 667 154 Q723 217 723 301 Q723 397 652 462 Q590 518 506 518 Q409 518 345 446 Q289 384 289 301 Q289 204 360 139 Q422 82 506 82 Z M2091 600 Q2225 600 2315 501 Q2394 414 2394 299 Q2394 165 2292 77 Q2205 2 2087 2 Q2044 2 1992.5 20.5 Q1941 39 1911 66 Q1882 84 1872 88 Q1789 110 1730 166 Q1705 190 1705 199 Q1705 207 1730 207 L1790 203 Q1805 202 1805 216 L1794 285 Q1792 426 1891 519 Q1975 600 2091 600 Z M2093 84 Q2190 84 2255 155 Q2312 217 2312 301 Q2312 398 2240 462 Q2177 518 2093 518 Q1997 518 1932 447 Q1876 385 1876 301 Q1876 204 1948 140 Q2010 84 2093 84 Z M1690 293 Q1708 291 1708 278 Q1708 271 1702 263 Q1689 243 1661 226 Q1640 213 1617 213 Q1609 213 1593 214 Q1159 229 981 240 Q925 244 925 267 Q925 270 926 277 Q926 371 882 465.5 Q838 560 764 623 Q646 728 525 736 Q466 740 363 740 Q343 740 326.5 757.5 Q310 775 310 795 Q306 847 306 887 Q306 940 314 994 Q321 1038 333.5 1051.5 Q346 1065 396 1078 Q450 1093 461 1100.5 Q472 1108 482 1139 Q532 1311 594 1393 Q606 1408 639 1408 Q649 1408 743 1405 Q768 1404 768 1394 Q768 1388 756 1366 Q664 1210 664 1087 Q664 994 713 875 Q761 758 870.5 638 Q980 518 1104 447 Q1325 322 1690 293 Z " />
<glyph glyph-name="Aring" unicode="&#xc5;" horiz-adv-x="2546" d="M236 465 Q229 453 225 453 Q219 453 219 473 Q227 536 235.5 560 Q244 584 270 618 Q301 657 301 674 Q301 694 338 694 Q380 694 377 663 Q373 629 344 602 Q295 557 291 539 L287 530 Q254 502 236 465 Z M850 1073 Q1306 1029 2016 920 Q2079 910 2120 883 Q2166 852 2200 813 Q2231 778 2231 745 Q2231 741 2231 737 L2226 682 Q2226 647 2245 614 L2292 535 L2292 531 Q2292 519 2283 519 Q2280 519 2277 522 Q2231 565 2192 588 Q2174 597 2169.5 608 Q2165 619 2165 653 L2169 737 Q2167 761 2157 772 Q2107 824 2082 840 Q2057 856 2020 862 Q1324 972 834 1032 Q700 1049 700 1067 Q700 1078 758 1078 Q796 1078 850 1073 Z M2046 586 Q2176 586 2265 488 Q2341 404 2341 291 Q2341 161 2242 76 Q2157 2 2042 2 Q2000 2 1951 19.5 Q1902 37 1870 63 Q1841 82 1831 86 Q1750 108 1694 162 Q1670 186 1670 194 Q1670 201 1686 201 Q1691 201 1694 201 Q1699 201 1753 199 Q1767 199 1767 211 L1757 279 Q1755 417 1850 508 Q1932 586 2046 586 Z M2048 82 Q2142 82 2206 152 Q2261 213 2261 295 Q2261 389 2190 452 Q2129 506 2048 506 Q1954 506 1891 436 Q1837 376 1837 295 Q1837 200 1906 137 Q1966 82 2048 82 Z M1653 287 Q1672 285 1672 271 Q1672 264 1667 256 Q1650 235 1626 221 Q1602 207 1561 207 L962 234 Q926 236 916.5 242 Q907 248 907 270 Q908 273 908 278 Q908 364 864 455.5 Q820 547 750 609 Q673 675 598 699 Q523 723 392 723 Q369 723 358 723 Q339 723 322.5 739 Q306 755 305 774 Q304 868 311.5 924.5 Q319 981 352 1129 Q365 1186 412 1325 Q400 1330 387 1338 Q363 1352 363 1360 Q363 1365 371 1366 Q739 1434 976 1434 Q1109 1434 1209 1413 Q1357 1383 1529 1286.5 Q1701 1190 2014 961 Q2019 957 2019 951 Q2019 945 2011 945 Q2007 945 2001 946 Q1950 953 1844 973 Q1826 976 1817 983 L1803 1002 Q1604 1159 1461 1239 Q1237 1362 1000 1362 Q969 1362 887 1358 Q750 1351 697 1276 Q655 1218 655 1085 Q655 965 701 854 Q749 738 856 621.5 Q963 505 1084 437 Q1302 311 1653 287 Z M611 1299 Q619 1310 619 1322 Q619 1335 608 1342 Q604 1343 599 1343 Q595 1343 592 1342 L582 1342 L524 1334 L514 1334 L506 1332 Q476 1329 463 1280 L451 1227 L447 1207 L443 1178 Q442 1172 441 1162 Q438 1153 436 1141 L436 1127 Q436 1106 449 1106 Q450 1106 451 1106 L455 1106 L459 1108 Q467 1115 471 1121 Q498 1154 510 1168 L518 1180 Q520 1182 539 1207 L549 1219 Q551 1221 570 1246 L588 1270 Q592 1274 611 1299 Z M891 238 Q903 236 903 228 Q903 221 895 209 Q855 155 819.5 129 Q784 103 727 86 Q699 77 680 61 Q597 0 500 0 Q368 0 281 98 Q205 182 205 295 Q205 425 303 513 Q387 588 500 588 Q630 588 718 491 Q794 406 793 295 Q793 257 797 249 Q801 241 819 240 Q858 238 891 238 Z M686 193 Q711 235 711 293 Q711 387 641 451 Q581 506 500 506 Q405 506 342 435 Q287 375 287 293 Q287 235 311 193 L324 174 Q333 159 348 143 Q357 134 365 129 Q391 110 398 107 Q449 80 500 80 Q549 80 600 107 Q607 110 633 129 Q635 130 649 143 Q657 150 676 174 Q678 180 686 193 Z " />
<glyph glyph-name="section" unicode="&#xa7;" horiz-adv-x="2546" d="" />
<glyph glyph-name="bullet" unicode="&#x2022;" horiz-adv-x="1843" d="M922 1434 Q1116 1434 1284 1336 Q1446 1241 1541 1079 Q1639 911 1639 717 Q1639 523 1541 355 Q1446 193 1284 98 Q1116 0 922 0 Q728 0 560 98 Q398 193 303 355 Q205 523 205 717 Q205 911 303 1079 Q398 1241 560 1336 Q728 1434 922 1434 Z M740 946 Q701 955 658 955 Q485 955 410 793 Q378 724 373 660 Q445 785 494.5 832 Q544 879 604 879 L948 803 Q1043 787 1102 787 Q1254 787 1306 881 Q1336 934 1352 1075 Q1275 983 1202.5 945.5 Q1130 908 1028 908 Q928 908 740 946 Z M1403 842 Q1273 721 1139 721 Q1019 721 780 811 Q715 836 651 836 Q509 836 428 697 Q394 639 383 584 Q463 687 514 727.5 Q565 768 615 768 L971 637 Q1100 590 1186 590 Q1278 590 1322 641 Q1366 692 1403 842 Z M971 451 Q1129 359 1223 359 Q1292 359 1335.5 404 Q1379 449 1428 569 Q1312 494 1213 494 Q1141 494 1051.5 530.5 Q962 567 809 658 Q718 713 635 713 Q518 713 434 603 Q399 556 383 512 Q534 651 613 651 Q666 651 763 586 Q914 483 971 451 Z " />
<glyph glyph-name="guillemotleft" unicode="&#xab;" horiz-adv-x="2138" d="M1159 1219 L641 715 L1159 211 L940 0 L205 715 L940 1430 L1159 1219 Z M1934 1223 L1415 719 L1934 215 L1714 4 L979 719 L1714 1434 L1934 1223 Z " />
<glyph glyph-name="guillemotright" unicode="&#xbb;" horiz-adv-x="2138" d="M1934 715 L1198 0 L979 211 L1497 715 L979 1219 L1198 1430 L1934 715 Z M1006 572 L422 4 L205 215 L723 719 L205 1223 L422 1434 L1159 719 L1006 572 Z " />
<glyph glyph-name="Agrave" unicode="&#xc0;" horiz-adv-x="1845" d="M1069 766 L1069 574 L373 574 Q294 574 249.5 609 Q205 644 205 707 L205 1301 Q205 1363 250 1398.5 Q295 1434 373 1434 L1249 1434 Q1327 1434 1372 1398.5 Q1417 1363 1417 1301 L1417 847 L871 847 L871 766 L1069 766 Z M871 1233 L871 1151 L1249 1151 L1249 1233 L871 1233 Z M871 1040 L871 958 L1249 958 L1249 1040 L871 1040 Z M553 1245 Q513 1245 485 1217 Q457 1189 457 1149 Q457 1109 485 1080.5 Q513 1052 553 1052 Q594 1052 622 1080.5 Q650 1109 650 1149 Q650 1189 621.5 1217 Q593 1245 553 1245 Z M725 758 L725 780 Q725 863 695 918 Q652 993 559 993 Q475 993 429 938 Q383 883 383 782 L383 758 L725 758 Z M1370 426 L1641 426 L1641 272 L1370 272 L1370 0 L1214 0 L1214 272 L944 272 L944 426 L1214 426 L1214 698 L1370 698 L1370 426 Z " />
<glyph glyph-name="Atilde" unicode="&#xc3;" horiz-adv-x="2148" d="M346 305 Q346 278 364.5 259.5 Q383 241 410 241 L1217 241 L1217 98 L410 98 Q319 98 258 167 Q205 226 205 305 L205 1227 Q205 1319 273 1381 Q331 1434 410 1434 L1662 1434 Q1752 1434 1813 1366 Q1866 1307 1866 1227 L1866 711 L1725 711 L1725 1227 Q1725 1236 1721 1252 L1039 670 L360 1264 Q346 1246 346 1227 L346 305 Z M1547 1291 L528 1291 L1039 859 L1547 1291 Z M1610 516 L1944 516 L1944 338 L1610 338 L1610 0 L1434 0 L1434 338 L1100 338 L1100 516 L1434 516 L1434 854 L1610 854 L1610 516 Z " />
<glyph glyph-name="endash" unicode="&#x2013;" horiz-adv-x="1843" d="M922 1434 Q1116 1434 1284 1336 Q1446 1241 1541 1079 Q1639 911 1639 717 Q1639 523 1541 355 Q1446 193 1284 98 Q1116 0 922 0 Q728 0 560 98 Q398 193 303 355 Q205 523 205 717 Q205 911 303 1079 Q398 1241 560 1336 Q728 1434 922 1434 Z M651 361 Q729 525 729 717 Q729 910 651 1071 L529 1035 Q604 880 604 717 Q604 554 529 399 L651 361 Z M901 283 Q1022 485 1022 717 Q1022 949 901 1151 L776 1112 Q895 932 895 717 Q895 502 776 322 L901 283 Z M1143 209 Q1315 437 1315 717 Q1315 997 1143 1225 L1014 1186 Q1188 982 1188 717 Q1188 452 1014 248 L1143 209 Z " />
<glyph glyph-name="emdash" unicode="&#x2014;" horiz-adv-x="1843" d="M205 915 L1639 915 L1639 516 L205 516 L205 915 Z " />
<glyph glyph-name="quotedblleft" unicode="&#x201c;" horiz-adv-x="1843" d="M1596 963 Q1639 843 1639 717 Q1639 478 1496 287 Q1369 116 1168 43 Q1045 0 920 0 Q682 0 491 144 Q322 271 248 471 Q205 591 205 717 Q205 956 348 1147 Q475 1318 676 1391 Q796 1434 922 1434 Q1160 1434 1352 1291 Q1522 1164 1596 963 Z M467 463 L744 563 L686 721 L410 619 L467 463 Z M811 588 L1090 688 L1032 846 L754 746 L811 588 Z M1100 871 L1157 713 L1434 813 L1376 971 L1100 871 Z " />
<glyph glyph-name="quotedblright" unicode="&#x201d;" horiz-adv-x="1843" d="M772 713 L852 792 L852 733 L1084 733 L1084 692 L852 692 L852 633 L772 713 Z M926 995 L895 944 L1096 829 L1075 795 L877 909 L846 858 L817 967 L926 995 Z M1073 633 L1094 598 L893 483 L924 432 L815 461 L844 569 L873 518 L1073 633 Z M922 1434 Q1116 1434 1284 1336 Q1446 1241 1541 1079 Q1639 911 1639 717 Q1639 523 1541 355 Q1446 193 1284 98 Q1116 0 922 0 Q728 0 560 98 Q398 193 303 355 Q205 523 205 717 Q205 911 303 1079 Q398 1241 560 1336 Q728 1434 922 1434 Z M674 324 Q730 242 838 242 Q945 242 1068 315 Q1188 386 1267 493 Q1352 609 1352 719 Q1352 833 1263 948 Q1183 1053 1059 1123 Q935 1192 830 1192 Q726 1192 674 1123 Q545 946 545 731 Q545 514 674 324 Z " />
<glyph glyph-name="quoteleft" unicode="&#x2018;" horiz-adv-x="1843" d="M1321 844 Q1325 843 1325 799 Q1325 776 1324 739 Q1297 502 1292 494 Q1292 473 1262 444 Q1215 420 1198 416 Q1195 415 1180 415 Q1132 415 1008 422 Q869 432 826 440 Q752 455 658 602 Q585 710 578 756 Q576 772 576 781 Q576 796 586 817 Q599 836 650 920 Q692 978 707 993 Q736 1022 828 1024 L912 1026 Q974 1026 1053 1018 Q1108 1012 1133 999 Q1171 980 1274 889 Q1288 874 1321 844 Z M1639 709 Q1637 516 1538 351 Q1443 191 1281 97 Q1115 0 922 0 Q727 0 560 98 Q398 193 303 355 Q205 523 205 717 Q205 911 303 1079 Q398 1241 560 1336 Q727 1434 922 1434 Q1115 1434 1281 1337 Q1443 1243 1538 1083 Q1637 918 1639 725 L1639 709 Z M686 365 L1350 359 L1430 600 L1446 824 L1436 832 L1233 1008 Q1182 1055 1157 1065 Q1104 1088 1028 1092 Q944 1099 849 1099 Q818 1099 791 1098 Q672 1092 555 1073 L404 711 L385 670 L424 617 Q440 620 462 620 Q497 620 524 608 Q593 578 629 526 Q669 469 674 412 Q680 369 686 365 Z " />
<glyph glyph-name="quoteright" unicode="&#x2019;" horiz-adv-x="1843" d="M1141 934 Q1179 923 1303 846 Q1317 834 1393 774 Q1394 694 1389 649 Q1382 594 1367 560 L1352 531 Q1339 511 1323 502 Q1284 481 1252 480 Q1244 479 1224 479 Q1154 479 1000 484 Q839 489 793 500 Q714 519 656 590 Q628 621 602 670 L568 723 Q549 757 549 781 Q549 837 578 879 Q601 913 631 932 Q644 941 695.5 948.5 Q747 956 795 957 Q871 958 877 958 Q952 958 1051 950 Q1112 944 1141 934 Z M922 1434 Q1116 1434 1284 1336 Q1446 1241 1541 1079 Q1639 912 1639 717 Q1639 523 1541 355 Q1446 193 1284 98 Q1116 0 922 0 Q728 0 560 98 Q398 193 303 355 Q205 523 205 717 Q205 912 303 1079 Q398 1241 560 1336 Q728 1434 922 1434 Z M1514 776 L1481 799 L1313 918 Q1245 971 1174 996 Q1113 1017 1010 1020 Q956 1026 857 1026 Q815 1026 762 1024 Q627 1020 494 989 L328 701 L307 668 L352 600 Q389 626 440 626 Q456 626 471 623 Q507 615 523.5 606 Q540 597 567 570 Q613 524 621 459 Q627 424 629 416 L1399 416 L1499 613 L1514 776 Z " />
<glyph glyph-name="Euro" unicode="&#x20ac;" horiz-adv-x="2599" d="" />
<glyph glyph-name="quotedblbase" unicode="&#x201e;" horiz-adv-x="1706" d="" />
<glyph glyph-name="Acircumflex" unicode="&#xc2;" horiz-adv-x="1827" d="M1286 510 L1622 510 L1622 334 L1286 334 L1286 0 L1110 0 L1110 334 L776 334 L776 510 L1110 510 L1110 846 L1286 846 L1286 510 Z M649 1008 Q583 953 536.5 879 Q490 805 490 754 L625 672 Q625 638 586 489 Q547 340 533 318 Q524 314 516 314 Q476 314 420 334 Q364 354 322 383 Q205 464 205 594 Q205 611 209 642 Q251 945 547 1184 Q857 1434 1065 1434 Q1197 1434 1274 1287 Q1323 1193 1323 1119 Q1323 1110 1319 1102 Q1300 1086 1139.5 1041 Q979 996 942 996 L895 1143 L887 1143 Q810 1143 649 1008 Z " />
<glyph glyph-name="Aacute" unicode="&#xc1;" horiz-adv-x="1642" d="M686 1204 L686 1245 L920 1245 L920 1204 L686 1204 Z M686 1108 L686 1149 L920 1149 L920 1108 L686 1108 Z M686 1014 L686 1055 L920 1055 L920 1014 L686 1014 Z M299 844 L299 506 L608 506 L608 410 L205 410 L205 938 L479 938 L479 1434 L1129 1434 L1129 938 L1403 938 L1403 582 L1307 582 L1307 844 L299 844 Z M573 1338 L573 938 L1033 938 L1033 1338 L573 1338 Z M1168 413 L1438 413 L1438 272 L1168 272 L1168 0 L1025 0 L1025 272 L752 272 L752 413 L1025 413 L1025 686 L1168 686 L1168 413 Z " />
<glyph glyph-name="tilde" unicode="&#x2dc;" horiz-adv-x="1724" d="M672 1434 L1520 1298 L1340 164 L1188 186 L1188 1247 L643 1247 L672 1434 Z M205 0 L205 1122 L1063 1122 L1063 0 L205 0 Z M350 780 L350 696 L895 696 L895 780 L350 780 Z M350 573 L350 490 L895 490 L895 573 L350 573 Z M350 367 L350 281 L895 281 L895 367 L350 367 Z " />
<glyph glyph-name="nbspace" unicode="&#xa0;" horiz-adv-x="1024" d="" />
<glyph glyph-name="uni00AD" unicode="&#xad;" horiz-adv-x="1835" d="M1608 237 Q1630 215 1630 178 Q1630 113 1573 57 Q1514 0 1450 0 Q1413 0 1391 23 L1026 393 Q1004 415 1004 450 L1004 458 Q968 473 953 512 Q836 444 699 444 Q492 444 346 590 Q205 734 205 938 Q205 1146 352 1291 Q496 1434 701 1434 Q909 1434 1053 1286 Q1194 1142 1194 938 Q1194 792 1118 674 Q1148 664 1167 628 L1186 631 Q1221 631 1243 608 L1608 237 Z M918 895 L918 1016 L477 1016 L477 895 L918 895 Z " />
<glyph glyph-name="uni037E" unicode="&#x37e;" horiz-adv-x="2583" d="M735 1434 L2378 1434 L2378 0 L735 0 L205 752 L735 1434 Z M1163 596 L1905 596 L1905 813 L1163 813 L1163 596 Z " />
<glyph glyph-name="uni2011" unicode="&#x2011;" horiz-adv-x="1835" d="M1608 237 Q1630 215 1630 178 Q1630 113 1573 57 Q1514 0 1450 0 Q1413 0 1391 23 L1026 393 Q1004 415 1004 450 L1004 458 Q968 473 953 512 Q836 444 699 444 Q492 444 346 590 Q205 734 205 938 Q205 1146 352 1291 Q496 1434 701 1434 Q909 1434 1053 1286 Q1194 1142 1194 938 Q1194 792 1118 674 Q1148 664 1167 628 L1186 631 Q1221 631 1243 608 L1608 237 Z M918 895 L918 1016 L477 1016 L477 895 L918 895 Z " />
<glyph glyph-name="figuredash" unicode="&#x2012;" horiz-adv-x="1843" d="M922 1434 Q1116 1434 1284 1336 Q1446 1241 1541 1079 Q1639 911 1639 717 Q1639 523 1541 355 Q1446 193 1284 98 Q1116 0 922 0 Q728 0 560 98 Q398 193 303 355 Q205 523 205 717 Q205 911 303 1079 Q398 1241 560 1336 Q728 1434 922 1434 Z M651 361 Q729 525 729 717 Q729 910 651 1071 L529 1035 Q604 880 604 717 Q604 554 529 399 L651 361 Z M901 283 Q1022 485 1022 717 Q1022 949 901 1151 L776 1112 Q895 932 895 717 Q895 502 776 322 L901 283 Z M1143 209 Q1315 437 1315 717 Q1315 997 1143 1225 L1014 1186 Q1188 982 1188 717 Q1188 452 1014 248 L1143 209 Z " />
<glyph glyph-name="afii00208" unicode="&#x2015;" horiz-adv-x="1843" d="M205 915 L1639 915 L1639 516 L205 516 L205 915 Z " />
<glyph glyph-name="minus" unicode="&#x2212;" horiz-adv-x="1835" d="M1608 237 Q1630 215 1630 178 Q1630 113 1573 57 Q1514 0 1450 0 Q1413 0 1391 23 L1026 393 Q1004 415 1004 450 L1004 458 Q968 473 953 512 Q836 444 699 444 Q492 444 346 590 Q205 734 205 938 Q205 1146 352 1291 Q496 1434 701 1434 Q909 1434 1053 1286 Q1194 1142 1194 938 Q1194 792 1118 674 Q1148 664 1167 628 L1186 631 Q1221 631 1243 608 L1608 237 Z M918 895 L918 1016 L477 1016 L477 895 L918 895 Z " />
</font>
</svg>
